<?xml version="1.0" encoding="UTF-8"?>
<svg xmlns="http://www.w3.org/2000/svg" width="1280" height="760" viewBox="0 0 1280 760" role="img" aria-label="WebgApp 全体構成図">
  <defs>
    <linearGradient id="bg" x1="0" y1="0" x2="1" y2="1">
      <stop offset="0%" stop-color="#fbfdff"/>
      <stop offset="100%" stop-color="#eef4fb"/>
    </linearGradient>
    <marker id="arrow" viewBox="0 0 10 10" refX="8.4" refY="5" markerWidth="4.1" markerHeight="4.1" orient="auto-start-reverse">
      <path d="M 0 0 L 10 5 L 0 10 z" fill="context-stroke"/>
    </marker>
  </defs>
  <rect width="1280" height="760" fill="url(#bg)"/>
  
    <text x="56" y="58" text-anchor="start" font-size="22" font-weight="700" fill="#374151" font-family="'Segoe UI', 'Hiragino Sans', 'Yu Gothic UI', sans-serif"><tspan x="56" dy="0">第5章</tspan></text>
    <text x="56" y="98" text-anchor="start" font-size="38" font-weight="700" fill="#111827" font-family="'Segoe UI', 'Hiragino Sans', 'Yu Gothic UI', sans-serif"><tspan x="56" dy="0">WebgApp 全体構成図</tspan></text>
    <line x1="56" y1="122" x2="1224" y2="122" stroke="#d8e3f4" stroke-width="2"/>
  
  
    
    <rect x="52" y="162" width="300" height="470" rx="28" ry="28" fill="#eef4ff" stroke="#9db4d7" stroke-width="2.2"/>
    <text x="76" y="200" text-anchor="start" font-size="24" font-weight="700" fill="#374151" font-family="'Segoe UI', 'Hiragino Sans', 'Yu Gothic UI', sans-serif"><tspan x="76" dy="0">利用者コード</tspan></text>
  
    
    <rect x="394" y="162" width="468" height="470" rx="28" ry="28" fill="#eef4ff" stroke="#9db4d7" stroke-width="2.2"/>
    <text x="418" y="200" text-anchor="start" font-size="24" font-weight="700" fill="#374151" font-family="'Segoe UI', 'Hiragino Sans', 'Yu Gothic UI', sans-serif"><tspan x="418" dy="0">WebgApp が束ねる基盤</tspan></text>
  
    
    <rect x="904" y="162" width="324" height="470" rx="28" ry="28" fill="#eef4ff" stroke="#9db4d7" stroke-width="2.2"/>
    <text x="928" y="200" text-anchor="start" font-size="24" font-weight="700" fill="#374151" font-family="'Segoe UI', 'Hiragino Sans', 'Yu Gothic UI', sans-serif"><tspan x="928" dy="0">毎フレーム</tspan></text>
  

    <rect x="86" y="232" width="232" height="86" rx="20" ry="20" fill="#f7fbff" stroke="#2f537f" stroke-width="2.5"/><text x="202" y="275" text-anchor="middle" font-size="26" font-weight="600" fill="#111827" font-family="'Segoe UI', 'Hiragino Sans', 'Yu Gothic UI', sans-serif"><tspan x="202" dy="0">new WebgApp(options)</tspan></text>
    <rect x="86" y="354" width="232" height="86" rx="20" ry="20" fill="#f7fbff" stroke="#2f537f" stroke-width="2.5"/><text x="202" y="397" text-anchor="middle" font-size="26" font-weight="600" fill="#111827" font-family="'Segoe UI', 'Hiragino Sans', 'Yu Gothic UI', sans-serif"><tspan x="202" dy="0">await app.init()</tspan></text>
    <rect x="86" y="476" width="232" height="96" rx="20" ry="20" fill="#f7fbff" stroke="#2f537f" stroke-width="2.5"/><text x="202" y="524" text-anchor="middle" font-size="26" font-weight="600" fill="#111827" font-family="'Segoe UI', 'Hiragino Sans', 'Yu Gothic UI', sans-serif"><tspan x="202" dy="-2.0250000000000004em">app.start({</tspan><tspan x="202" dy="1.35em">onUpdate,</tspan><tspan x="202" dy="1.35em">onAfterHud</tspan><tspan x="202" dy="1.35em">})</tspan></text>

    <rect x="430" y="210" width="182" height="78" rx="20" ry="20" fill="#f7fbff" stroke="#2f537f" stroke-width="2.5"/><text x="521" y="249" text-anchor="middle" font-size="26" font-weight="600" fill="#111827" font-family="'Segoe UI', 'Hiragino Sans', 'Yu Gothic UI', sans-serif"><tspan x="521" dy="-0.675em">Screen</tspan><tspan x="521" dy="1.35em">canvas / WebGPU</tspan></text>
    <rect x="644" y="210" width="182" height="78" rx="20" ry="20" fill="#f7fbff" stroke="#2f537f" stroke-width="2.5"/><text x="735" y="249" text-anchor="middle" font-size="26" font-weight="600" fill="#111827" font-family="'Segoe UI', 'Hiragino Sans', 'Yu Gothic UI', sans-serif"><tspan x="735" dy="-0.675em">Space</tspan><tspan x="735" dy="1.35em">scene graph</tspan></text>
    <rect x="430" y="318" width="182" height="78" rx="20" ry="20" fill="#f7fbff" stroke="#2f537f" stroke-width="2.5"/><text x="521" y="357" text-anchor="middle" font-size="26" font-weight="600" fill="#111827" font-family="'Segoe UI', 'Hiragino Sans', 'Yu Gothic UI', sans-serif"><tspan x="521" dy="-0.675em">camera rig</tspan><tspan x="521" dy="1.35em">base / rod / eye</tspan></text>
    <rect x="644" y="318" width="182" height="78" rx="20" ry="20" fill="#f7fbff" stroke="#2f537f" stroke-width="2.5"/><text x="735" y="357" text-anchor="middle" font-size="26" font-weight="600" fill="#111827" font-family="'Segoe UI', 'Hiragino Sans', 'Yu Gothic UI', sans-serif"><tspan x="735" dy="-0.675em">InputController</tspan><tspan x="735" dy="1.35em">keyboard / touch</tspan></text>
    <rect x="430" y="426" width="182" height="78" rx="20" ry="20" fill="#f7fbff" stroke="#2f537f" stroke-width="2.5"/><text x="521" y="465" text-anchor="middle" font-size="26" font-weight="600" fill="#111827" font-family="'Segoe UI', 'Hiragino Sans', 'Yu Gothic UI', sans-serif"><tspan x="521" dy="-0.675em">HUD / Overlay</tspan><tspan x="521" dy="1.35em">Message / UIPanel</tspan></text>
    <rect x="644" y="426" width="182" height="78" rx="20" ry="20" fill="#f7fbff" stroke="#2f537f" stroke-width="2.5"/><text x="735" y="465" text-anchor="middle" font-size="26" font-weight="600" fill="#111827" font-family="'Segoe UI', 'Hiragino Sans', 'Yu Gothic UI', sans-serif"><tspan x="735" dy="-0.675em">Diagnostics</tspan><tspan x="735" dy="1.35em">DebugDock / probe</tspan></text>
    <rect x="537" y="534" width="182" height="78" rx="20" ry="20" fill="#f7fbff" stroke="#2f537f" stroke-width="2.5"/><text x="628" y="573" text-anchor="middle" font-size="26" font-weight="600" fill="#111827" font-family="'Segoe UI', 'Hiragino Sans', 'Yu Gothic UI', sans-serif"><tspan x="628" dy="-0.675em">Loader facade</tspan><tspan x="628" dy="1.35em">ModelLoader / SceneLoader</tspan></text>

    <rect x="952" y="248" width="228" height="86" rx="20" ry="20" fill="#f7fbff" stroke="#2f537f" stroke-width="2.5"/><text x="1066" y="291" text-anchor="middle" font-size="26" font-weight="600" fill="#111827" font-family="'Segoe UI', 'Hiragino Sans', 'Yu Gothic UI', sans-serif"><tspan x="1066" dy="-0.675em">update</tspan><tspan x="1066" dy="1.35em">handlers</tspan></text>
    <rect x="952" y="372" width="228" height="86" rx="20" ry="20" fill="#f7fbff" stroke="#2f537f" stroke-width="2.5"/><text x="1066" y="415" text-anchor="middle" font-size="26" font-weight="600" fill="#111827" font-family="'Segoe UI', 'Hiragino Sans', 'Yu Gothic UI', sans-serif"><tspan x="1066" dy="-0.675em">draw 3D</tspan><tspan x="1066" dy="1.35em">scene</tspan></text>
    <rect x="952" y="496" width="228" height="86" rx="20" ry="20" fill="#f7fbff" stroke="#2f537f" stroke-width="2.5"/><text x="1066" y="539" text-anchor="middle" font-size="26" font-weight="600" fill="#111827" font-family="'Segoe UI', 'Hiragino Sans', 'Yu Gothic UI', sans-serif"><tspan x="1066" dy="-0.675em">draw HUD /</tspan><tspan x="1066" dy="1.35em">overlays</tspan></text>

    <line x1="202" y1="318" x2="202" y2="354" stroke="#4b5563" stroke-width="3"  marker-end="url(#arrow)"/>
    <line x1="202" y1="440" x2="202" y2="476" stroke="#4b5563" stroke-width="3"  marker-end="url(#arrow)"/>
    <line x1="318" y1="399" x2="430" y2="250" stroke="#4b5563" stroke-width="3"  marker-end="url(#arrow)"/>
    <line x1="318" y1="399" x2="644" y2="250" stroke="#4b5563" stroke-width="3"  marker-end="url(#arrow)"/>
    <line x1="318" y1="399" x2="430" y2="358" stroke="#4b5563" stroke-width="3"  marker-end="url(#arrow)"/>
    <line x1="318" y1="399" x2="644" y2="358" stroke="#4b5563" stroke-width="3"  marker-end="url(#arrow)"/>
    <line x1="318" y1="399" x2="430" y2="466" stroke="#4b5563" stroke-width="3"  marker-end="url(#arrow)"/>
    <line x1="318" y1="399" x2="644" y2="466" stroke="#4b5563" stroke-width="3"  marker-end="url(#arrow)"/>
    <line x1="318" y1="399" x2="537" y2="574" stroke="#4b5563" stroke-width="3"  marker-end="url(#arrow)"/>

    <line x1="826" y1="249" x2="952" y2="291" stroke="#4b5563" stroke-width="3"  marker-end="url(#arrow)"/><text x="889" y="212" text-anchor="middle" font-size="20" font-weight="500" fill="#374151" font-family="'Segoe UI', 'Hiragino Sans', 'Yu Gothic UI', sans-serif"><tspan x="889" dy="0">init で準備</tspan></text>
    <line x1="826" y1="358" x2="952" y2="415" stroke="#4b5563" stroke-width="3"  marker-end="url(#arrow)"/>
    <line x1="826" y1="466" x2="952" y2="539" stroke="#4b5563" stroke-width="3"  marker-end="url(#arrow)"/>
    <line x1="612" y1="612" x2="612" y2="650" stroke="#4b5563" stroke-width="3" stroke-dasharray="10 8" marker-end="url(#arrow)"/><text x="724" y="640" text-anchor="middle" font-size="20" font-weight="500" fill="#374151" font-family="'Segoe UI', 'Hiragino Sans', 'Yu Gothic UI', sans-serif"><tspan x="724" dy="0">loadModel / loadScene</tspan></text>

    <text x="1040" y="650" text-anchor="middle" font-size="24" font-weight="500" fill="#374151" font-family="'Segoe UI', 'Hiragino Sans', 'Yu Gothic UI', sans-serif"><tspan x="1040" dy="0">3D と UI の入口を 1 か所にまとめる</tspan></text>
  
</svg>