<svg xmlns="http://www.w3.org/2000/svg" xmlns:xlink="http://www.w3.org/1999/xlink" contentStyleType="text/css" data-diagram-type="DESCRIPTION" height="523.4375px" preserveAspectRatio="none" style="width:1242px;height:523px;background:#FFFFFF;" version="1.1" viewBox="0 0 1242 523" width="1242.1875px" zoomAndPan="magnify"><title>&#26368;&#23567;&#25551;&#30011;&#12363;&#12425; WebgApp &#12408;&#12398;&#27969;&#12428;</title><defs><filter height="300%" id="fsjol0rl00g7n" width="300%" x="-1" y="-1"><feGaussianBlur result="blurOut" stdDeviation="3.125"/><feColorMatrix in="blurOut" result="blurOut2" type="matrix" values="0 0 0 0 0 0 0 0 0 0 0 0 0 0 0 0 0 0 .4 0"/><feOffset dx="6.25" dy="6.25" in="blurOut2" result="blurOut3"/><feBlend in="SourceGraphic" in2="blurOut3" mode="normal"/></filter></defs><g><g class="title" data-source-line="1"><text fill="#000000" font-family="Yu Gothic UI" font-size="21.875" font-weight="bold" lengthAdjust="spacing" textLength="339.7781" x="440.2881" y="36.7737">&#26368;&#23567;&#25551;&#30011;&#12363;&#12425; WebgApp &#12408;&#12398;&#27969;&#12428;</text></g><!--entity Low1--><g class="entity" data-entity="Low1" data-source-line="20" data-uid="ent0002" id="entity_Low1"><rect fill="#F7FBFF" filter="url(#fsjol0rl00g7n)" height="64.3738" rx="18.75" ry="18.75" style="stroke:#000000;stroke-width:0.7813;" width="442.3721" x="43.4844" y="149.5129"/><text fill="#000000" font-family="Yu Gothic UI" font-size="28.125" lengthAdjust="spacing" textLength="411.1221" x="59.1094" y="192.3291">1. Screen &#12434;&#20316;&#12387;&#12390; await ready</text></g><!--entity Low2--><g class="entity" data-entity="Low2" data-source-line="21" data-uid="ent0003" id="entity_Low2"><rect fill="#F7FBFF" filter="url(#fsjol0rl00g7n)" height="64.3738" rx="18.75" ry="18.75" style="stroke:#000000;stroke-width:0.7813;" width="452.2873" x="38.5313" y="246.7004"/><text fill="#000000" font-family="Yu Gothic UI" font-size="28.125" lengthAdjust="spacing" textLength="421.0373" x="54.1562" y="289.5166">2. Shader / projection &#12434;&#21021;&#26399;&#21270;</text></g><!--entity Low3--><g class="entity" data-entity="Low3" data-source-line="22" data-uid="ent0004" id="entity_Low3"><rect fill="#F7FBFF" filter="url(#fsjol0rl00g7n)" height="64.3738" rx="18.75" ry="18.75" style="stroke:#000000;stroke-width:0.7813;" width="431.1935" x="49.0781" y="343.8879"/><text fill="#000000" font-family="Yu Gothic UI" font-size="28.125" lengthAdjust="spacing" textLength="399.9435" x="64.7031" y="386.7041">3. Space / eye / Shape &#12434;&#20316;&#12427;</text></g><!--entity Low4--><g class="entity" data-entity="Low4" data-source-line="23" data-uid="ent0005" id="entity_Low4"><rect fill="#F7FBFF" filter="url(#fsjol0rl00g7n)" height="64.3738" rx="18.75" ry="18.75" style="stroke:#000000;stroke-width:0.7813;" width="507.4799" x="10.9375" y="441.0754"/><text fill="#000000" font-family="Yu Gothic UI" font-size="28.125" lengthAdjust="spacing" textLength="476.2299" x="26.5625" y="483.8916">4. clear -&gt; draw -&gt; present &#12434;&#22238;&#12377;</text></g><!--entity App1--><g class="entity" data-entity="App1" data-source-line="25" data-uid="ent0006" id="entity_App1"><rect fill="#F7FBFF" filter="url(#fsjol0rl00g7n)" height="64.3738" rx="18.75" ry="18.75" style="stroke:#000000;stroke-width:0.7813;" width="381.2881" x="749.0313" y="149.5129"/><text fill="#000000" font-family="Yu Gothic UI" font-size="28.125" lengthAdjust="spacing" textLength="350.0381" x="764.6563" y="192.3291">1. new WebgApp(options)</text></g><!--entity App2--><g class="entity" data-entity="App2" data-source-line="26" data-uid="ent0007" id="entity_App2"><rect fill="#F7FBFF" filter="url(#fsjol0rl00g7n)" height="64.3738" rx="18.75" ry="18.75" style="stroke:#000000;stroke-width:0.7813;" width="269.4748" x="804.9375" y="246.7004"/><text fill="#000000" font-family="Yu Gothic UI" font-size="28.125" lengthAdjust="spacing" textLength="238.2248" x="820.5625" y="289.5166">2. await app.init()</text></g><!--entity App3--><g class="entity" data-entity="App3" data-source-line="27" data-uid="ent0008" id="entity_App3"><rect fill="#F7FBFF" filter="url(#fsjol0rl00g7n)" height="64.3738" rx="18.75" ry="18.75" style="stroke:#000000;stroke-width:0.7813;" width="468.4647" x="705.4375" y="343.8879"/><text fill="#000000" font-family="Yu Gothic UI" font-size="28.125" lengthAdjust="spacing" textLength="437.2147" x="721.0625" y="386.7041">3. shape / model / scene &#12434;&#36861;&#21152;</text></g><!--entity App4--><g class="entity" data-entity="App4" data-source-line="28" data-uid="ent0009" id="entity_App4"><rect fill="#F7FBFF" filter="url(#fsjol0rl00g7n)" height="64.3738" rx="18.75" ry="18.75" style="stroke:#000000;stroke-width:0.7813;" width="567.5888" x="655.8906" y="441.0754"/><text fill="#000000" font-family="Yu Gothic UI" font-size="28.125" lengthAdjust="spacing" textLength="536.3388" x="671.5156" y="483.8916">4. app.start() &#12391;&#20837;&#21147; / HUD / &#35386;&#26029;&#12418;&#22238;&#12377;</text></g><g class="entity" data-entity="GMN17" data-source-line="40" data-uid="ent0018" id="entity_GMN17"><path d="M107.6406,67.9504 L107.6406,116.6992 A0,0 0 0 0 107.6406,116.6992 L258.4219,116.6992 L264.6719,149.1536 L270.9219,116.6992 L421.7031,116.6992 A0,0 0 0 0 421.7031,116.6992 L421.7031,83.5754 L406.0781,67.9504 L107.6406,67.9504 A0,0 0 0 0 107.6406,67.9504" fill="#FEFFDD" filter="url(#fsjol0rl00g7n)" style="stroke:#181818;stroke-width:0.7813;"/><path d="M406.0781,67.9504 L406.0781,83.5754 L421.7031,83.5754 L406.0781,67.9504" fill="#FEFFDD" style="stroke:#181818;stroke-width:0.7813;"/><text fill="#000000" font-family="Yu Gothic UI" font-size="28.125" lengthAdjust="spacing" textLength="281.25" x="117.0156" y="102.9541">&#12525;&#12540;&#12524;&#12505;&#12523;&#12398;&#26368;&#23567;&#27083;&#25104;</text></g><g class="entity" data-entity="GMN20" data-source-line="44" data-uid="ent0021" id="entity_GMN20"><path d="M783.625,67.9504 L783.625,116.6992 A0,0 0 0 0 783.625,116.6992 L933.4219,116.6992 L939.6719,149.1536 L945.9219,116.6992 L1095.7374,116.6992 A0,0 0 0 0 1095.7374,116.6992 L1095.7374,83.5754 L1080.1124,67.9504 L783.625,67.9504 A0,0 0 0 0 783.625,67.9504" fill="#FEFFDD" filter="url(#fsjol0rl00g7n)" style="stroke:#181818;stroke-width:0.7813;"/><path d="M1080.1124,67.9504 L1080.1124,83.5754 L1095.7374,83.5754 L1080.1124,67.9504" fill="#FEFFDD" style="stroke:#181818;stroke-width:0.7813;"/><text fill="#000000" font-family="Yu Gothic UI" font-size="28.125" lengthAdjust="spacing" textLength="279.2999" x="793" y="102.9541">WebgApp &#12398;&#27161;&#28310;&#27083;&#25104;</text></g><!--link Low1 to Low2--><g class="link" data-entity-1="Low1" data-entity-2="Low2" data-source-line="30" data-uid="lnk10" id="link_Low1_Low2"><path d="M264.6719,214.5911 C264.6719,224.8567 264.6719,226.8567 264.6719,237.0911" fill="none" id="Low1-to-Low2" style="stroke:#000000;stroke-width:1.5625;"/><polygon fill="#000000" points="264.6719,246.4661,270.9219,232.4036,264.6719,238.6536,258.4219,232.4036,264.6719,246.4661" style="stroke:#000000;stroke-width:1.5625;"/></g><!--link Low2 to Low3--><g class="link" data-entity-1="Low2" data-entity-2="Low3" data-source-line="31" data-uid="lnk11" id="link_Low2_Low3"><path d="M264.6719,311.7786 C264.6719,322.0286 264.6719,324.0442 264.6719,334.2786" fill="none" id="Low2-to-Low3" style="stroke:#000000;stroke-width:1.5625;"/><polygon fill="#000000" points="264.6719,343.6536,270.9219,329.5911,264.6719,335.8411,258.4219,329.5911,264.6719,343.6536" style="stroke:#000000;stroke-width:1.5625;"/></g><!--link Low3 to Low4--><g class="link" data-entity-1="Low3" data-entity-2="Low4" data-source-line="32" data-uid="lnk12" id="link_Low3_Low4"><path d="M264.6719,408.9661 C264.6719,419.2161 264.6719,421.2317 264.6719,431.4661" fill="none" id="Low3-to-Low4" style="stroke:#000000;stroke-width:1.5625;"/><polygon fill="#000000" points="264.6719,440.8411,270.9219,426.7786,264.6719,433.0286,258.4219,426.7786,264.6719,440.8411" style="stroke:#000000;stroke-width:1.5625;"/></g><!--link App1 to App2--><g class="link" data-entity-1="App1" data-entity-2="App2" data-source-line="33" data-uid="lnk13" id="link_App1_App2"><path d="M939.6719,214.5911 C939.6719,224.8567 939.6719,226.8567 939.6719,237.0911" fill="none" id="App1-to-App2" style="stroke:#000000;stroke-width:1.5625;"/><polygon fill="#000000" points="939.6719,246.4661,945.9219,232.4036,939.6719,238.6536,933.4219,232.4036,939.6719,246.4661" style="stroke:#000000;stroke-width:1.5625;"/></g><!--link App2 to App3--><g class="link" data-entity-1="App2" data-entity-2="App3" data-source-line="34" data-uid="lnk14" id="link_App2_App3"><path d="M939.6719,311.7786 C939.6719,322.0286 939.6719,324.0442 939.6719,334.2786" fill="none" id="App2-to-App3" style="stroke:#000000;stroke-width:1.5625;"/><polygon fill="#000000" points="939.6719,343.6536,945.9219,329.5911,939.6719,335.8411,933.4219,329.5911,939.6719,343.6536" style="stroke:#000000;stroke-width:1.5625;"/></g><!--link App3 to App4--><g class="link" data-entity-1="App3" data-entity-2="App4" data-source-line="35" data-uid="lnk15" id="link_App3_App4"><path d="M939.6719,408.9661 C939.6719,419.2161 939.6719,421.2317 939.6719,431.4661" fill="none" id="App3-to-App4" style="stroke:#000000;stroke-width:1.5625;"/><polygon fill="#000000" points="939.6719,440.8411,945.9219,426.7786,939.6719,433.0286,933.4219,426.7786,939.6719,440.8411" style="stroke:#000000;stroke-width:1.5625;"/></g><!--link Low2 to App2--><g class="link" data-entity-1="Low2" data-entity-2="App2" data-source-line="37" data-uid="lnk16" id="link_Low2_App2"><path d="M491.3281,278.8879 C595.1094,278.8879 705.2656,278.8879 794.7969,278.8879" fill="none" id="Low2-to-App2" style="stroke:#000000;stroke-width:1.5625;stroke-dasharray:10.9375,10.9375;"/><polygon fill="#000000" points="804.1719,278.8879,790.1094,272.6379,796.3594,278.8879,790.1094,285.1379,804.1719,278.8879" style="stroke:#000000;stroke-width:1.5625;"/><text fill="#000000" font-family="Yu Gothic UI" font-size="28.125" lengthAdjust="spacing" textLength="225" x="535.375" y="234.2041">&#25551;&#30011;&#12398;&#39592;&#26684;&#12434;&#29702;&#35299;</text><text fill="#000000" font-family="Yu Gothic UI" font-size="28.125" lengthAdjust="spacing" textLength="281.25" x="507.25" y="267.3279">&#12375;&#12383;&#12354;&#12392;&#12391;&#27161;&#28310;&#27083;&#25104;&#12408;</text></g><!--SRC=[RPHTQzH058RlyoiEzS9wqQtx8OeNGbNy0F72KaJmPZQPxCRDpWoJMK8LmMIfrBRG8b8fhRPGj8lQueqWjSKVCsww_WlF9AOT5sycy9vvppdFPCweG8KKigqNmw-hsUhgoPiVEbdMwIjuI9kj6I509zzrSf1zItIwuZYA2r0ScbmftWKlaDHL0MVE-P3woaHaq6ehAn1r0YQ895re4hVJahp7l1iyv1BYTg2e5O_QnEDnm5gWPCyEU2A0wgMBja9zqWlLBSxKVTAbyAW7jxbg1oxCtVt_jjdWAONg5Ije6YIiXV3F7807HL-IKGcr1WhNkVIeB3fjXjYwqSO8plcN_QRlOyIKiFS-jmhDICbZEsZrG5WdeW9gDXpZ7lqhEcTDJbGhCEjAIXdezFMluosTxEha8v2O10fXY3S_0II2UpokshOQsl1W4MiQXEHFYjzYSWmNtsLRsyELzT9Nitrrz0dYKhJHURDY5a7BskboQQhRfaO5t90I2LFNm9CaDbyXaOQflEBcUvribCx6E1wZSNdh9hamRKONyiqeZ3CLs4I8Ii02DNcwRvmXohkUXYuUQeZVoAKifnZzF1ukxPIsSGgJE594OcOSWBtXmeVXqYRQxypTn7KqECpMztMQMa2O187CwSCKNcE6vFcHciLMwaQfsqh3CNodIWvX5bkf6wLkAqMn6bJoWQiKFhWAvGmV_Fuqo7QEaFHaxULeR_SnqybRdMph9DN909comKPsk9xjBMUBQpZZZiEuec3cc_l5BTBzVTq_qlqlkh-X-v_DAr0y4xd7eSm3u_dNcV-hixVZm2vpQla3]--></g></svg>