<svg xmlns="http://www.w3.org/2000/svg" xmlns:xlink="http://www.w3.org/1999/xlink" contentStyleType="text/css" data-diagram-type="DESCRIPTION" height="534.375px" preserveAspectRatio="none" style="width:1465px;height:534px;background:#FFFFFF;" version="1.1" viewBox="0 0 1465 534" width="1465.625px" zoomAndPan="magnify"><title>WebgApp &#20840;&#20307;&#27083;&#25104;&#22259;</title><defs><filter height="300%" id="fohk7jrthijh7" width="300%" x="-1" y="-1"><feGaussianBlur result="blurOut" stdDeviation="3.125"/><feColorMatrix in="blurOut" result="blurOut2" type="matrix" values="0 0 0 0 0 0 0 0 0 0 0 0 0 0 0 0 0 0 .4 0"/><feOffset dx="6.25" dy="6.25" in="blurOut2" result="blurOut3"/><feBlend in="SourceGraphic" in2="blurOut3" mode="normal"/></filter></defs><g><g class="title" data-source-line="1"><text fill="#000000" font-family="Yu Gothic UI" font-size="21.875" font-weight="bold" lengthAdjust="spacing" textLength="223.1934" x="611.0028" y="36.7737">WebgApp &#20840;&#20307;&#27083;&#25104;&#22259;</text></g><!--entity NewApp--><g class="entity" data-entity="NewApp" data-source-line="20" data-uid="ent0002" id="entity_NewApp"><rect fill="#F7FBFF" filter="url(#fohk7jrthijh7)" height="64.3738" rx="18.75" ry="18.75" style="stroke:#000000;stroke-width:0.7813;" width="345.7062" x="643.1875" y="69.5129"/><text fill="#000000" font-family="Yu Gothic UI" font-size="28.125" lengthAdjust="spacing" textLength="314.4562" x="658.8125" y="112.3291">new WebgApp(options)</text></g><!--entity InitApp--><g class="entity" data-entity="InitApp" data-source-line="21" data-uid="ent0003" id="entity_InitApp"><rect fill="#F7FBFF" filter="url(#fohk7jrthijh7)" height="64.3738" rx="18.75" ry="18.75" style="stroke:#000000;stroke-width:0.7813;" width="233.8928" x="699.0938" y="165.1379"/><text fill="#000000" font-family="Yu Gothic UI" font-size="28.125" lengthAdjust="spacing" textLength="202.6428" x="714.7188" y="207.9541">await app.init()</text></g><!--entity StartApp--><g class="entity" data-entity="StartApp" data-source-line="22" data-uid="ent0004" id="entity_StartApp"><rect fill="#F7FBFF" filter="url(#fohk7jrthijh7)" height="64.3738" rx="18.75" ry="18.75" style="stroke:#000000;stroke-width:0.7813;" width="497.2214" x="567.4219" y="260.7629"/><text fill="#000000" font-family="Yu Gothic UI" font-size="28.125" lengthAdjust="spacing" textLength="465.9714" x="583.0469" y="303.5791">app.start ({onUpdate,onAfterHud})</text></g><!--entity Screen--><g class="entity" data-entity="Screen" data-source-line="24" data-uid="ent0005" id="entity_Screen"><rect fill="#F7FBFF" filter="url(#fohk7jrthijh7)" height="64.3738" rx="18.75" ry="18.75" style="stroke:#000000;stroke-width:0.7813;" width="121.1044" x="44.5469" y="356.3879"/><text fill="#000000" font-family="Yu Gothic UI" font-size="28.125" lengthAdjust="spacing" textLength="89.8544" x="60.1719" y="399.2041">Screen</text></g><!--entity Space--><g class="entity" data-entity="Space" data-source-line="25" data-uid="ent0006" id="entity_Space"><rect fill="#F7FBFF" filter="url(#fohk7jrthijh7)" height="64.3738" rx="18.75" ry="18.75" style="stroke:#000000;stroke-width:0.7813;" width="109.7061" x="212.75" y="356.3879"/><text fill="#000000" font-family="Yu Gothic UI" font-size="28.125" lengthAdjust="spacing" textLength="78.4561" x="228.375" y="399.2041">Space</text></g><!--entity CameraRig--><g class="entity" data-entity="CameraRig" data-source-line="26" data-uid="ent0007" id="entity_CameraRig"><rect fill="#F7FBFF" filter="url(#fohk7jrthijh7)" height="64.3738" rx="18.75" ry="18.75" style="stroke:#000000;stroke-width:0.7813;" width="176.2283" x="352.9219" y="356.3879"/><text fill="#000000" font-family="Yu Gothic UI" font-size="28.125" lengthAdjust="spacing" textLength="144.9783" x="368.5469" y="399.2041">camera rig</text></g><!--entity InputController--><g class="entity" data-entity="InputController" data-source-line="27" data-uid="ent0008" id="entity_InputController"><rect fill="#F7FBFF" filter="url(#fohk7jrthijh7)" height="64.3738" rx="18.75" ry="18.75" style="stroke:#000000;stroke-width:0.7813;" width="239.4135" x="560.3906" y="356.3879"/><text fill="#000000" font-family="Yu Gothic UI" font-size="28.125" lengthAdjust="spacing" textLength="208.1635" x="576.0156" y="399.2041">InputController</text></g><!--entity HudOverlay--><g class="entity" data-entity="HudOverlay" data-source-line="28" data-uid="ent0009" id="entity_HudOverlay"><rect fill="#F7FBFF" filter="url(#fohk7jrthijh7)" height="64.3738" rx="18.75" ry="18.75" style="stroke:#000000;stroke-width:0.7813;" width="242.3248" x="830.8125" y="356.3879"/><text fill="#000000" font-family="Yu Gothic UI" font-size="28.125" lengthAdjust="spacing" textLength="211.0748" x="846.4375" y="399.2041">HUD / Message</text></g><!--entity Diagnostics--><g class="entity" data-entity="Diagnostics" data-source-line="29" data-uid="ent0010" id="entity_Diagnostics"><rect fill="#F7FBFF" filter="url(#fohk7jrthijh7)" height="64.3738" rx="18.75" ry="18.75" style="stroke:#000000;stroke-width:0.7813;" width="189.975" x="1103.8594" y="356.3879"/><text fill="#000000" font-family="Yu Gothic UI" font-size="28.125" lengthAdjust="spacing" textLength="158.725" x="1119.4844" y="399.2041">Diagnostics</text></g><!--entity LoaderFacade--><g class="entity" data-entity="LoaderFacade" data-source-line="30" data-uid="ent0011" id="entity_LoaderFacade"><rect fill="#F7FBFF" filter="url(#fohk7jrthijh7)" height="64.3738" rx="18.75" ry="18.75" style="stroke:#000000;stroke-width:0.7813;" width="123.9334" x="1324.3906" y="356.3879"/><text fill="#000000" font-family="Yu Gothic UI" font-size="28.125" lengthAdjust="spacing" textLength="92.6834" x="1340.0156" y="399.2041">Loader</text></g><!--entity UpdateHandlers--><g class="entity" data-entity="UpdateHandlers" data-source-line="31" data-uid="ent0012" id="entity_UpdateHandlers"><rect fill="#F7FBFF" filter="url(#fohk7jrthijh7)" height="64.3738" rx="18.75" ry="18.75" style="stroke:#000000;stroke-width:0.7813;" width="125.8286" x="10.9375" y="452.0129"/><text fill="#000000" font-family="Yu Gothic UI" font-size="28.125" lengthAdjust="spacing" textLength="94.5786" x="26.5625" y="494.8291">update</text></g><!--entity DrawScene--><g class="entity" data-entity="DrawScene" data-source-line="32" data-uid="ent0013" id="entity_DrawScene"><rect fill="#F7FBFF" filter="url(#fohk7jrthijh7)" height="64.3738" rx="18.75" ry="18.75" style="stroke:#000000;stroke-width:0.7813;" width="231.8466" x="167.2969" y="452.0129"/><text fill="#000000" font-family="Yu Gothic UI" font-size="28.125" lengthAdjust="spacing" textLength="200.5966" x="182.9219" y="494.8291">draw 3D scene</text></g><!--entity DrawHud--><g class="entity" data-entity="DrawHud" data-source-line="33" data-uid="ent0014" id="entity_DrawHud"><rect fill="#F7FBFF" filter="url(#fohk7jrthijh7)" height="64.3738" rx="18.75" ry="18.75" style="stroke:#000000;stroke-width:0.7813;" width="167.7826" x="868.0781" y="452.0129"/><text fill="#000000" font-family="Yu Gothic UI" font-size="28.125" lengthAdjust="spacing" textLength="136.5326" x="883.7031" y="494.8291">draw HUD</text></g><!--link NewApp to InitApp--><g class="link" data-entity-1="NewApp" data-entity-2="InitApp" data-source-line="35" data-uid="lnk15" id="link_NewApp_InitApp"><path d="M816.0469,134.5911 C816.0469,144.2317 816.0469,145.4661 816.0469,155.1067" fill="none" id="NewApp-to-InitApp" style="stroke:#000000;stroke-width:1.5625;"/><polygon fill="#000000" points="816.0469,164.4817,822.2969,150.4192,816.0469,156.6692,809.7969,150.4192,816.0469,164.4817" style="stroke:#000000;stroke-width:1.5625;"/></g><!--link InitApp to StartApp--><g class="link" data-entity-1="InitApp" data-entity-2="StartApp" data-source-line="36" data-uid="lnk16" id="link_InitApp_StartApp"><path d="M816.0469,230.2004 C816.0469,239.8567 816.0469,241.0911 816.0469,250.7317" fill="none" id="InitApp-to-StartApp" style="stroke:#000000;stroke-width:1.5625;"/><polygon fill="#000000" points="816.0469,260.1067,822.2969,246.0442,816.0469,252.2942,809.7969,246.0442,816.0469,260.1067" style="stroke:#000000;stroke-width:1.5625;"/></g><!--link StartApp to Screen--><g class="link" data-entity-1="StartApp" data-entity-2="Screen" data-source-line="38" data-uid="lnk17" id="link_StartApp_Screen"><path d="M567.2031,306.8098 C453.5156,315.6379 317.6563,330.7161 197.2969,356.3879 C187.0625,358.5754 185.3525,358.745 175.0244,361.9169" fill="none" id="StartApp-to-Screen" style="stroke:#000000;stroke-width:1.5625;"/><polygon fill="#000000" points="166.0625,364.6692,181.3402,366.5153,173.5307,362.3756,177.6705,354.5662,166.0625,364.6692" style="stroke:#000000;stroke-width:1.5625;"/></g><!--link StartApp to Space--><g class="link" data-entity-1="StartApp" data-entity-2="Space" data-source-line="39" data-uid="lnk18" id="link_StartApp_Space"><path d="M567.0781,313.2786 C492.5156,322.4817 411.125,336.1536 337.9219,356.3879 C333.0313,357.7317 336.8722,356.1506 331.9347,357.9475" fill="none" id="StartApp-to-Space" style="stroke:#000000;stroke-width:1.5625;"/><polygon fill="#000000" points="323.125,361.1536,338.477,362.2176,330.4665,358.4818,334.2022,350.4713,323.125,361.1536" style="stroke:#000000;stroke-width:1.5625;"/></g><!--link StartApp to CameraRig--><g class="link" data-entity-1="StartApp" data-entity-2="CameraRig" data-source-line="40" data-uid="lnk19" id="link_StartApp_CameraRig"><path d="M670.2813,325.8567 C629.3594,335.1536 584.9063,345.7161 544.1719,356.3879 C539.4688,357.6223 543.6975,356.4401 538.8538,357.7683" fill="none" id="StartApp-to-CameraRig" style="stroke:#000000;stroke-width:1.5625;"/><polygon fill="#000000" points="529.8125,360.2473,545.0271,362.5562,537.3469,358.1814,541.7217,350.5012,529.8125,360.2473" style="stroke:#000000;stroke-width:1.5625;"/></g><!--link StartApp to InputController--><g class="link" data-entity-1="StartApp" data-entity-2="InputController" data-source-line="41" data-uid="lnk20" id="link_StartApp_InputController"><path d="M770.0156,325.8254 C755.8438,335.4817 748.0015,340.818 733.8296,350.4586" fill="none" id="StartApp-to-InputController" style="stroke:#000000;stroke-width:1.5625;"/><polygon fill="#000000" points="726.0781,355.7317,741.2207,352.9898,732.5377,351.3375,734.19,342.6544,726.0781,355.7317" style="stroke:#000000;stroke-width:1.5625;"/></g><!--link StartApp to HudOverlay--><g class="link" data-entity-1="StartApp" data-entity-2="HudOverlay" data-source-line="42" data-uid="lnk21" id="link_StartApp_HudOverlay"><path d="M862.0625,325.8254 C876.2344,335.4817 884.0766,340.818 898.2485,350.4586" fill="none" id="StartApp-to-HudOverlay" style="stroke:#000000;stroke-width:1.5625;"/><polygon fill="#000000" points="906,355.7317,897.8881,342.6544,899.5404,351.3375,890.8574,352.9898,906,355.7317" style="stroke:#000000;stroke-width:1.5625;"/></g><!--link StartApp to Diagnostics--><g class="link" data-entity-1="StartApp" data-entity-2="Diagnostics" data-source-line="43" data-uid="lnk22" id="link_StartApp_Diagnostics"><path d="M961.1094,325.9192 C1002.6719,335.2942 1047.9531,345.8879 1089.4844,356.3879 C1094.0625,357.5442 1089.6856,356.3697 1094.42,357.6197" fill="none" id="StartApp-to-Diagnostics" style="stroke:#000000;stroke-width:1.5625;"/><polygon fill="#000000" points="1103.4844,360.0129,1091.4833,350.3802,1095.9307,358.0186,1088.2923,362.466,1103.4844,360.0129" style="stroke:#000000;stroke-width:1.5625;"/></g><!--link StartApp to LoaderFacade--><g class="link" data-entity-1="StartApp" data-entity-2="LoaderFacade" data-source-line="44" data-uid="lnk23" id="link_StartApp_LoaderFacade"><path d="M1065.4063,315.0129 C1139.6719,324.2161 1220.7656,337.4504 1294.1719,356.3879 C1303.875,358.8879 1305.1848,359.0915 1315.0911,362.7322" fill="none" id="StartApp-to-LoaderFacade" style="stroke:#000000;stroke-width:1.5625;"/><polygon fill="#000000" points="1323.8906,365.9661,1312.8472,355.2488,1316.5576,363.2711,1308.5353,366.9816,1323.8906,365.9661" style="stroke:#000000;stroke-width:1.5625;"/></g><!--link LoaderFacade to StartApp--><g class="link" data-entity-1="LoaderFacade" data-entity-2="StartApp" data-source-line="49" data-uid="lnk27" id="link_LoaderFacade_StartApp"><path d="M1323.9531,356.0129 C1241.0938,334.7473 1157.8963,321.7626 1074.7088,312.5594" fill="none" id="LoaderFacade-to-StartApp" style="stroke:#000000;stroke-width:1.5625;stroke-dasharray:10.9375,10.9375;"/><polygon fill="#000000" points="1065.3906,311.5286,1078.6806,319.287,1073.1557,312.3876,1080.0551,306.8628,1065.3906,311.5286" style="stroke:#000000;stroke-width:1.5625;"/></g><!--link Screen to UpdateHandlers--><g class="link" data-entity-1="Screen" data-entity-2="UpdateHandlers" data-source-line="46" data-uid="lnk24" id="link_Screen_UpdateHandlers"><path d="M94.5156,421.4504 C91.2656,431.1067 90.6667,432.8323 87.4167,442.4729" fill="none" id="Screen-to-UpdateHandlers" style="stroke:#000000;stroke-width:1.5625;stroke-dasharray:10.9375,10.9375;"/><polygon fill="#000000" points="84.4219,451.3567,94.8367,440.0276,86.9176,443.9535,82.9916,436.0345,84.4219,451.3567" style="stroke:#000000;stroke-width:1.5625;"/></g><!--link Space to DrawScene--><g class="link" data-entity-1="Space" data-entity-2="DrawScene" data-source-line="47" data-uid="lnk25" id="link_Space_DrawScene"><path d="M272.8906,421.4504 C274.5156,431.1067 274.7543,432.4715 276.3793,442.1121" fill="none" id="Space-to-DrawScene" style="stroke:#000000;stroke-width:1.5625;"/><polygon fill="#000000" points="277.9375,451.3567,281.7632,436.451,276.639,443.6529,269.4371,438.5286,277.9375,451.3567" style="stroke:#000000;stroke-width:1.5625;"/></g><!--link HudOverlay to DrawHud--><g class="link" data-entity-1="HudOverlay" data-entity-2="DrawHud" data-source-line="48" data-uid="lnk26" id="link_HudOverlay_DrawHud"><path d="M951.9844,421.4504 C951.9844,431.1067 951.9844,432.3411 951.9844,441.9817" fill="none" id="HudOverlay-to-DrawHud" style="stroke:#000000;stroke-width:1.5625;"/><polygon fill="#000000" points="951.9844,451.3567,958.2344,437.2942,951.9844,443.5442,945.7344,437.2942,951.9844,451.3567" style="stroke:#000000;stroke-width:1.5625;"/></g><!--SRC=[RLDDRnCn4BtlhnYL0q4YWHOGd2g5HYMHe4YD8iHnTZsxiRAnBTlB2geUaIfnGUB83u0xP_uDxU_0NkTZDd3o-Brdp_ERNIzzJV2Eycfi3Dn-_lddzxUx7r_kRhxUVl-LPLuRy1foxRrUWv2M2Y-rokxNLFh8M5ajFIFSIYg35jUGOx6gh6wKEDErjj0kfIV6koKAtKfLWRSD9uIHSFpiCKUenARsvrhv2rmJl6_WbVPBMS1Yzd_PN7uYE7x1o6WGLHKUUvK1N2PVLf65awS1UAcj89kSvdMm7h635zmhdvTvMGOcjk3QQzPeRArkESaye5evCd327wUqe0sOxKqUAMgtOnbe4xDr3uu07LnG6p0knHQb1pHc99NqWoIRXV9G5nJEe_KmkD9gOGHwUgZLkFHafusuJWVdKH5FygFpmXAfn7TbZpHOKE9YnQaYZCjY_4ew_gpRNigAQsRAD25DvQskQx8RzpsCowUB2Jo2D-GSLgbhyFxs0zaQFtBTH6AbjFEoS9sAxRdijKQnQPhASop2mYLDbrGdIQ5DKOdWgdUFiDZ2amcuWbJIJW8oZxj_PE49EqKmdsLffZ0CFuGQdkvcjrbX6B3zMBPLWjCq-bWtXHwq3xu77yRS8rciFPm7sIDw-MN96On6fuUfTVxILRk8zirsH4o6NzbTjMtu5m00]--></g></svg>