<svg xmlns="http://www.w3.org/2000/svg" xmlns:xlink="http://www.w3.org/1999/xlink" contentStyleType="text/css" data-diagram-type="DESCRIPTION" height="467.1875px" preserveAspectRatio="none" style="width:1537px;height:467px;background:#FFFFFF;" version="1.1" viewBox="0 0 1537 467" width="1537.5px" zoomAndPan="magnify"><title>ModelAsset -&gt; build -&gt; instantiate</title><defs><filter height="300%" id="fnv5rfrbgfyfz" width="300%" x="-1" y="-1"><feGaussianBlur result="blurOut" stdDeviation="3.125"/><feColorMatrix in="blurOut" result="blurOut2" type="matrix" values="0 0 0 0 0 0 0 0 0 0 0 0 0 0 0 0 0 0 .4 0"/><feOffset dx="6.25" dy="6.25" in="blurOut2" result="blurOut3"/><feBlend in="SourceGraphic" in2="blurOut3" mode="normal"/></filter></defs><g><g class="title" data-source-line="1"><text fill="#000000" font-family="Yu Gothic UI" font-size="21.875" font-weight="bold" lengthAdjust="spacing" textLength="400.4044" x="558.146" y="36.7737">ModelAsset -&gt; build -&gt; instantiate</text></g><!--entity Gltf--><g class="entity" data-entity="Gltf" data-source-line="20" data-uid="ent0002" id="entity_Gltf"><rect fill="#F7FBFF" filter="url(#fnv5rfrbgfyfz)" height="64.3738" rx="18.75" ry="18.75" style="stroke:#000000;stroke-width:0.7813;" width="173.8251" x="39.75" y="147.6379"/><text fill="#000000" font-family="Yu Gothic UI" font-size="28.125" lengthAdjust="spacing" textLength="142.5751" x="55.375" y="190.4541">glTF / GLB</text></g><!--entity Collada--><g class="entity" data-entity="Collada" data-source-line="21" data-uid="ent0003" id="entity_Collada"><rect fill="#F7FBFF" filter="url(#fnv5rfrbgfyfz)" height="64.3738" rx="18.75" ry="18.75" style="stroke:#000000;stroke-width:0.7813;" width="133.0109" x="60.1563" y="242.9504"/><text fill="#000000" font-family="Yu Gothic UI" font-size="28.125" lengthAdjust="spacing" textLength="101.7609" x="75.7813" y="285.7666">Collada</text></g><!--entity ImportedJson--><g class="entity" data-entity="ImportedJson" data-source-line="22" data-uid="ent0004" id="entity_ImportedJson"><rect fill="#F7FBFF" filter="url(#fnv5rfrbgfyfz)" height="64.3738" rx="18.75" ry="18.75" style="stroke:#000000;stroke-width:0.7813;" width="231.4346" x="10.9375" y="338.2629"/><text fill="#000000" font-family="Yu Gothic UI" font-size="28.125" lengthAdjust="spacing" textLength="200.1846" x="26.5625" y="381.0791">imported JSON</text></g><!--entity ModelAsset--><g class="entity" data-entity="ModelAsset" data-source-line="23" data-uid="ent0005" id="entity_ModelAsset"><rect fill="#F7FBFF" filter="url(#fnv5rfrbgfyfz)" height="97.4976" rx="18.75" ry="18.75" style="stroke:#000000;stroke-width:0.7813;" width="291.5161" x="273.625" y="226.3879"/><text fill="#000000" font-family="Yu Gothic UI" font-size="28.125" lengthAdjust="spacing" textLength="157.2693" x="289.25" y="269.2041">ModelAsset</text><text fill="#000000" font-family="Yu Gothic UI" font-size="28.125" lengthAdjust="spacing" textLength="260.2661" x="289.25" y="302.3279">CPU &#20596;&#12398;&#20849;&#36890;&#12487;&#12540;&#12479;</text></g><!--entity Validate--><g class="entity" data-entity="Validate" data-source-line="24" data-uid="ent0006" id="entity_Validate"><rect fill="#F7FBFF" filter="url(#fnv5rfrbgfyfz)" height="64.3738" rx="18.75" ry="18.75" style="stroke:#000000;stroke-width:0.7813;" width="137.0209" x="596.3906" y="194.5129"/><text fill="#000000" font-family="Yu Gothic UI" font-size="28.125" lengthAdjust="spacing" textLength="105.7709" x="612.0156" y="237.3291">validate</text></g><!--entity Build--><g class="entity" data-entity="Build" data-source-line="25" data-uid="ent0007" id="entity_Build"><rect fill="#F7FBFF" filter="url(#fnv5rfrbgfyfz)" height="64.3738" rx="18.75" ry="18.75" style="stroke:#000000;stroke-width:0.7813;" width="118.66" x="605.5625" y="289.8254"/><text fill="#000000" font-family="Yu Gothic UI" font-size="28.125" lengthAdjust="spacing" textLength="87.41" x="621.1875" y="332.6416">build()</text></g><!--entity Runtime--><g class="entity" data-entity="Runtime" data-source-line="26" data-uid="ent0008" id="entity_Runtime"><rect fill="#F7FBFF" filter="url(#fnv5rfrbgfyfz)" height="97.4976" rx="18.75" ry="18.75" style="stroke:#000000;stroke-width:0.7813;" width="255.3574" x="864.3281" y="273.2629"/><text fill="#000000" font-family="Yu Gothic UI" font-size="28.125" lengthAdjust="spacing" textLength="84.375" x="879.9531" y="316.0791">&#12514;&#12487;&#12523;</text><text fill="#000000" font-family="Yu Gothic UI" font-size="28.125" lengthAdjust="spacing" textLength="224.1074" x="879.9531" y="349.2029">GPU&#20849;&#26377;&#12496;&#12483;&#12501;&#12449;</text></g><!--entity InstA--><g class="entity" data-entity="InstA" data-source-line="27" data-uid="ent0009" id="entity_InstA"><rect fill="#F7FBFF" filter="url(#fnv5rfrbgfyfz)" height="64.3738" rx="18.75" ry="18.75" style="stroke:#000000;stroke-width:0.7813;" width="269.1727" x="1250.625" y="194.5129"/><text fill="#000000" font-family="Yu Gothic UI" font-size="28.125" lengthAdjust="spacing" textLength="237.9227" x="1266.25" y="237.3291">instantiate() -&gt; A</text></g><!--entity InstB--><g class="entity" data-entity="InstB" data-source-line="28" data-uid="ent0010" id="entity_InstB"><rect fill="#F7FBFF" filter="url(#fnv5rfrbgfyfz)" height="64.3738" rx="18.75" ry="18.75" style="stroke:#000000;stroke-width:0.7813;" width="265.9454" x="1252.2344" y="289.8254"/><text fill="#000000" font-family="Yu Gothic UI" font-size="28.125" lengthAdjust="spacing" textLength="234.6954" x="1267.8594" y="332.6416">instantiate() -&gt; B</text></g><!--entity InstC--><g class="entity" data-entity="InstC" data-source-line="29" data-uid="ent0011" id="entity_InstC"><rect fill="#F7FBFF" filter="url(#fnv5rfrbgfyfz)" height="64.3738" rx="18.75" ry="18.75" style="stroke:#000000;stroke-width:0.7813;" width="269.2276" x="1250.5938" y="385.1379"/><text fill="#000000" font-family="Yu Gothic UI" font-size="28.125" lengthAdjust="spacing" textLength="237.9776" x="1266.2188" y="427.9541">instantiate() -&gt; C</text></g><g class="entity" data-entity="GMN21" data-source-line="42" data-uid="ent0022" id="entity_GMN21"><path d="M54,67.9504 L54,116.6992 A0,0 0 0 0 54,116.6992 L120.4063,116.6992 L126.6563,147.0129 L132.9063,116.6992 L199.3125,116.6992 A0,0 0 0 0 199.3125,116.6992 L199.3125,83.5754 L183.6875,67.9504 L54,67.9504 A0,0 0 0 0 54,67.9504" fill="#FEFFDD" filter="url(#fnv5rfrbgfyfz)" style="stroke:#181818;stroke-width:0.7813;"/><path d="M183.6875,67.9504 L183.6875,83.5754 L199.3125,83.5754 L183.6875,67.9504" fill="#FEFFDD" style="stroke:#181818;stroke-width:0.7813;"/><text fill="#000000" font-family="Yu Gothic UI" font-size="28.125" lengthAdjust="spacing" textLength="112.5" x="63.375" y="102.9541">&#20837;&#21147;&#24418;&#24335;</text></g><g class="entity" data-entity="GMN24" data-source-line="46" data-uid="ent0025" id="entity_GMN24"><path d="M764.6563,160.7629 L764.6563,242.6355 A0,0 0 0 0 764.6563,242.6355 L985.75,242.6355 L992,272.6692 L998.25,242.6355 L1219.3438,242.6355 A0,0 0 0 0 1219.3438,242.6355 L1219.3438,176.3879 L1203.7188,160.7629 L764.6563,160.7629 A0,0 0 0 0 764.6563,160.7629" fill="#FEFFDD" filter="url(#fnv5rfrbgfyfz)" style="stroke:#181818;stroke-width:0.7813;"/><path d="M1203.7188,160.7629 L1203.7188,176.3879 L1219.3438,176.3879 L1203.7188,160.7629" fill="#FEFFDD" style="stroke:#181818;stroke-width:0.7813;"/><text fill="#000000" font-family="Yu Gothic UI" font-size="28.125" lengthAdjust="spacing" textLength="169.8486" x="774.0313" y="195.7666">build &#12399; 1 &#22238;</text><text fill="#000000" font-family="Yu Gothic UI" font-size="28.125" lengthAdjust="spacing" textLength="421.875" x="774.0313" y="228.8904">&#24517;&#35201;&#12394;&#25968;&#12384;&#12369;&#12452;&#12531;&#12473;&#12479;&#12531;&#12473;&#12434;&#20316;&#12427;</text></g><!--link Gltf to ModelAsset--><g class="link" data-entity-1="Gltf" data-entity-2="ModelAsset" data-source-line="31" data-uid="lnk12" id="link_Gltf_ModelAsset"><path d="M214.3281,208.1692 C232.8281,214.2629 243.9694,217.9275 264.0162,224.5212" fill="none" id="Gltf-to-ModelAsset" style="stroke:#000000;stroke-width:1.5625;"/><polygon fill="#000000" points="272.9219,227.4504,261.5162,217.1195,265.5005,225.0094,257.6106,228.9937,272.9219,227.4504" style="stroke:#000000;stroke-width:1.5625;"/></g><!--link Collada to ModelAsset--><g class="link" data-entity-1="Collada" data-entity-2="ModelAsset" data-source-line="32" data-uid="lnk13" id="link_Collada_ModelAsset"><path d="M193.9375,275.1379 C217.625,275.1379 236.0313,275.1379 263.7969,275.1379" fill="none" id="Collada-to-ModelAsset" style="stroke:#000000;stroke-width:1.5625;"/><polygon fill="#000000" points="273.1719,275.1379,259.1094,268.8879,265.3594,275.1379,259.1094,281.3879,273.1719,275.1379" style="stroke:#000000;stroke-width:1.5625;"/></g><!--link ImportedJson to ModelAsset--><g class="link" data-entity-1="ImportedJson" data-entity-2="ModelAsset" data-source-line="33" data-uid="lnk14" id="link_ImportedJson_ModelAsset"><path d="M228.2813,337.5129 C242.8437,332.7317 249.1568,330.645 264.3599,325.645" fill="none" id="ImportedJson-to-ModelAsset" style="stroke:#000000;stroke-width:1.5625;"/><polygon fill="#000000" points="273.2656,322.7161,257.9544,321.1723,265.8442,325.1568,261.8596,333.0466,273.2656,322.7161" style="stroke:#000000;stroke-width:1.5625;"/></g><!--link ModelAsset to Validate--><g class="link" data-entity-1="ModelAsset" data-entity-2="Validate" data-source-line="34" data-uid="lnk15" id="link_ModelAsset_Validate"><path d="M565.4375,246.2629 C575.9844,244.1536 577.0872,243.924 586.8059,241.9865" fill="none" id="ModelAsset-to-Validate" style="stroke:#000000;stroke-width:1.5625;"/><polygon fill="#000000" points="596,240.1536,580.9869,236.7735,588.3383,241.681,583.4308,249.0323,596,240.1536" style="stroke:#000000;stroke-width:1.5625;"/></g><!--link ModelAsset to Build--><g class="link" data-entity-1="ModelAsset" data-entity-2="Build" data-source-line="35" data-uid="lnk16" id="link_ModelAsset_Build"><path d="M565.4375,303.0754 C579.2344,305.7473 583.4053,306.5592 595.5928,308.9186" fill="none" id="ModelAsset-to-Build" style="stroke:#000000;stroke-width:1.5625;"/><polygon fill="#000000" points="604.7969,310.7004,592.1786,301.8916,597.1268,309.2156,589.8028,314.1638,604.7969,310.7004" style="stroke:#000000;stroke-width:1.5625;"/></g><!--link Build to Runtime--><g class="link" data-entity-1="Build" data-entity-2="Runtime" data-source-line="36" data-uid="lnk17" id="link_Build_Runtime"><path d="M724.375,322.0129 C763.1563,322.0129 806.3281,322.0129 854.5,322.0129" fill="none" id="Build-to-Runtime" style="stroke:#000000;stroke-width:1.5625;"/><polygon fill="#000000" points="863.875,322.0129,849.8125,315.7629,856.0625,322.0129,849.8125,328.2629,863.875,322.0129" style="stroke:#000000;stroke-width:1.5625;"/></g><!--link Runtime to InstA--><g class="link" data-entity-1="Runtime" data-entity-2="InstA" data-source-line="37" data-uid="lnk18" id="link_Runtime_InstA"><path d="M1120.2188,291.0754 C1161.8125,280.9036 1199.0648,271.8006 1241.1429,261.5194" fill="none" id="Runtime-to-InstA" style="stroke:#000000;stroke-width:1.5625;"/><polygon fill="#000000" points="1250.25,259.2942,1235.1059,256.5606,1242.6608,261.1485,1238.0728,268.7034,1250.25,259.2942" style="stroke:#000000;stroke-width:1.5625;"/></g><!--link Runtime to InstB--><g class="link" data-entity-1="Runtime" data-entity-2="InstB" data-source-line="38" data-uid="lnk19" id="link_Runtime_InstB"><path d="M1120.2188,322.0129 C1162.2656,322.0129 1199.7813,322.0129 1242.2344,322.0129" fill="none" id="Runtime-to-InstB" style="stroke:#000000;stroke-width:1.5625;"/><polygon fill="#000000" points="1251.6094,322.0129,1237.5469,315.7629,1243.7969,322.0129,1237.5469,328.2629,1251.6094,322.0129" style="stroke:#000000;stroke-width:1.5625;"/></g><!--link Runtime to InstC--><g class="link" data-entity-1="Runtime" data-entity-2="InstC" data-source-line="39" data-uid="lnk20" id="link_Runtime_InstC"><path d="M1120.2188,352.9661 C1161.8125,363.1223 1199.0648,372.2252 1241.1429,382.5065" fill="none" id="Runtime-to-InstC" style="stroke:#000000;stroke-width:1.5625;"/><polygon fill="#000000" points="1250.25,384.7317,1238.0728,375.3225,1242.6608,382.8774,1235.1059,387.4653,1250.25,384.7317" style="stroke:#000000;stroke-width:1.5625;"/></g><!--SRC=[VLHDQnD16BxlhtYf1zj3q1H5Jq8sqD2YjRH647gPpSnkXipEBBEp1XJ1pH94FVW1lTWYMjI3WX_eHMZfZnctwBzmzYF9D8IUzftdUURzclTTHHKZS4jWmbfnJ1GqRe2NK8OBW_9O8QueKiHn6F4LA06I1dq5c4hIKrHmvw8IKO5xGYaHMaGye3n24eNWeTuWa2BXk2sOa33iK-DnniTzXCMGyW2KJ6m2HnIQLo_R2F5HmjIQu6eJXGJk9T0Hgazxq5rVBDkX3mWqhrjaaI3YWQdxeGEmNUKbEP6mUiK0hf2Oo2fJZvdK2sokWWl-DT_pVSCK8Mpj8ojGIqenj4ah1yG7CObWrIwEcsUeGMUMv5B0xgp19UZST9S0nT1XohTf4u0XZ4gkjcsQXf6GYc3OsBczMOhMQsGZDgzaAMTJiClRMrt8qryw_PgFV_nx_4PdJtHsf4SdfOUPqhv_7p6ApQoKahlrmHQKWxMyKl9kOTkapWxB85zsUMUhQwAU7ZpLsKkTPJhRqwFtvQtjn8nZUCQfDQJBAyNKjgeY3TmwL-TETUwvklPKrtQSeldGCAZLWhhfyx3TvddENZZ3J9irXrTDSgjzDET9-VKN6cPjkC6hOXUXxaBK5CA58b2ihl2hYSh77_Dd-_dnONxqmY4SGw4ugvk4htuGElq6JSZttphvoVZlfrIddq_tlklqdKvVwT47dVtKezzcOYR6wp_71thqVEhxFm00]--></g></svg>