<svg xmlns="http://www.w3.org/2000/svg" xmlns:xlink="http://www.w3.org/1999/xlink" contentStyleType="text/css" data-diagram-type="DESCRIPTION" height="645.3125px" preserveAspectRatio="none" style="width:1259px;height:645px;background:#FFFFFF;" version="1.1" viewBox="0 0 1259 645" width="1259.375px" zoomAndPan="magnify"><title>AudioSynth &#12392;&#12496;&#12473;&#27083;&#25104;&#12398;&#20840;&#20307;&#20687;</title><defs><filter height="300%" id="f1fyx1oy43inj" width="300%" x="-1" y="-1"><feGaussianBlur result="blurOut" stdDeviation="3.125"/><feColorMatrix in="blurOut" result="blurOut2" type="matrix" values="0 0 0 0 0 0 0 0 0 0 0 0 0 0 0 0 0 0 .4 0"/><feOffset dx="6.25" dy="6.25" in="blurOut2" result="blurOut3"/><feBlend in="SourceGraphic" in2="blurOut3" mode="normal"/></filter></defs><g><g class="title" data-source-line="1"><text fill="#000000" font-family="Yu Gothic UI" font-size="21.875" font-weight="bold" lengthAdjust="spacing" textLength="332.9849" x="452.6347" y="36.7737">AudioSynth &#12392;&#12496;&#12473;&#27083;&#25104;&#12398;&#20840;&#20307;&#20687;</text></g><!--entity UserInput--><g class="entity" data-entity="UserInput" data-source-line="19" data-uid="ent0002" id="entity_UserInput"><rect fill="#F7FBFF" filter="url(#f1fyx1oy43inj)" height="97.4976" rx="18.75" ry="18.75" style="stroke:#000000;stroke-width:0.7813;" width="260.672" x="73.5156" y="530.4504"/><text fill="#000000" font-family="Yu Gothic UI" font-size="28.125" lengthAdjust="spacing" textLength="140.625" x="89.1406" y="573.2666">&#12508;&#12479;&#12531;&#25805;&#20316;</text><text fill="#000000" font-family="Yu Gothic UI" font-size="28.125" lengthAdjust="spacing" textLength="229.422" x="89.1406" y="606.3904">&#12463;&#12522;&#12483;&#12463; / &#12479;&#12483;&#12503;</text></g><!--entity GameAudioSynth--><g class="entity" data-entity="GameAudioSynth" data-source-line="20" data-uid="ent0003" id="entity_GameAudioSynth"><rect fill="#F7FBFF" filter="url(#f1fyx1oy43inj)" height="97.4976" rx="18.75" ry="18.75" style="stroke:#000000;stroke-width:0.7813;" width="264.27" x="71.7188" y="260.1379"/><text fill="#000000" font-family="Yu Gothic UI" font-size="28.125" lengthAdjust="spacing" textLength="233.02" x="87.3438" y="302.9541">GameAudioSynth</text><text fill="#000000" font-family="Yu Gothic UI" font-size="28.125" lengthAdjust="spacing" textLength="185.3668" x="87.3438" y="336.0779">preset / SE &#21517;</text></g><!--entity SampleHelper--><g class="entity" data-entity="SampleHelper" data-source-line="21" data-uid="ent0004" id="entity_SampleHelper"><rect fill="#F7FBFF" filter="url(#f1fyx1oy43inj)" height="97.4976" rx="18.75" ry="18.75" style="stroke:#000000;stroke-width:0.7813;" width="385.82" x="10.9375" y="69.5129"/><text fill="#000000" font-family="Yu Gothic UI" font-size="28.125" lengthAdjust="spacing" textLength="192.659" x="26.5625" y="112.3291">sample helper</text><text fill="#000000" font-family="Yu Gothic UI" font-size="28.125" lengthAdjust="spacing" textLength="354.57" x="26.5625" y="145.4529">BGM preset / event sound</text></g><!--entity Resume--><g class="entity" data-entity="Resume" data-source-line="23" data-uid="ent0005" id="entity_Resume"><rect fill="#F7FBFF" filter="url(#f1fyx1oy43inj)" height="64.3738" rx="18.75" ry="18.75" style="stroke:#000000;stroke-width:0.7813;" width="150.4379" x="474.9375" y="547.0129"/><text fill="#000000" font-family="Yu Gothic UI" font-size="28.125" lengthAdjust="spacing" textLength="119.1879" x="490.5625" y="589.8291">resume()</text></g><!--entity AudioContext--><g class="entity" data-entity="AudioContext" data-source-line="24" data-uid="ent0006" id="entity_AudioContext"><rect fill="#F7FBFF" filter="url(#f1fyx1oy43inj)" height="97.4976" rx="18.75" ry="18.75" style="stroke:#000000;stroke-width:0.7813;" width="249.7818" x="703.5625" y="530.4504"/><text fill="#000000" font-family="Yu Gothic UI" font-size="28.125" lengthAdjust="spacing" textLength="188.1134" x="719.1875" y="573.2666">AudioContext</text><text fill="#000000" font-family="Yu Gothic UI" font-size="28.125" lengthAdjust="spacing" textLength="218.5318" x="719.1875" y="606.3904">ensureContext()</text></g><!--entity SeBus--><g class="entity" data-entity="SeBus" data-source-line="25" data-uid="ent0007" id="entity_SeBus"><rect fill="#F7FBFF" filter="url(#f1fyx1oy43inj)" height="64.3738" rx="18.75" ry="18.75" style="stroke:#000000;stroke-width:0.7813;" width="120.0333" x="490.1406" y="276.7004"/><text fill="#000000" font-family="Yu Gothic UI" font-size="28.125" lengthAdjust="spacing" textLength="88.7833" x="505.7656" y="319.5166">SE bus</text></g><!--entity BgmBus--><g class="entity" data-entity="BgmBus" data-source-line="26" data-uid="ent0008" id="entity_BgmBus"><rect fill="#F7FBFF" filter="url(#f1fyx1oy43inj)" height="64.3738" rx="18.75" ry="18.75" style="stroke:#000000;stroke-width:0.7813;" width="150.3693" x="474.9688" y="372.0129"/><text fill="#000000" font-family="Yu Gothic UI" font-size="28.125" lengthAdjust="spacing" textLength="119.1193" x="490.5938" y="414.8291">BGM bus</text></g><!--entity Delay--><g class="entity" data-entity="Delay" data-source-line="27" data-uid="ent0009" id="entity_Delay"><rect fill="#F7FBFF" filter="url(#f1fyx1oy43inj)" height="64.3738" rx="18.75" ry="18.75" style="stroke:#000000;stroke-width:0.7813;" width="102.977" x="498.6719" y="86.0754"/><text fill="#000000" font-family="Yu Gothic UI" font-size="28.125" lengthAdjust="spacing" textLength="71.727" x="514.2969" y="128.8916">delay</text></g><!--entity Reverb--><g class="entity" data-entity="Reverb" data-source-line="28" data-uid="ent0010" id="entity_Reverb"><rect fill="#F7FBFF" filter="url(#f1fyx1oy43inj)" height="64.3738" rx="18.75" ry="18.75" style="stroke:#000000;stroke-width:0.7813;" width="117.8635" x="491.2188" y="181.3879"/><text fill="#000000" font-family="Yu Gothic UI" font-size="28.125" lengthAdjust="spacing" textLength="86.6135" x="506.8438" y="224.2041">reverb</text></g><!--entity Master--><g class="entity" data-entity="Master" data-source-line="30" data-uid="ent0011" id="entity_Master"><rect fill="#F7FBFF" filter="url(#f1fyx1oy43inj)" height="64.3738" rx="18.75" ry="18.75" style="stroke:#000000;stroke-width:0.7813;" width="125.0732" x="765.9063" y="340.7629"/><text fill="#000000" font-family="Yu Gothic UI" font-size="28.125" lengthAdjust="spacing" textLength="93.8232" x="781.5313" y="383.5791">master</text></g><!--entity Speaker--><g class="entity" data-entity="Speaker" data-source-line="31" data-uid="ent0012" id="entity_Speaker"><rect fill="#F7FBFF" filter="url(#f1fyx1oy43inj)" height="64.3738" rx="18.75" ry="18.75" style="stroke:#000000;stroke-width:0.7813;" width="256.7856" x="984.5938" y="340.7629"/><text fill="#000000" font-family="Yu Gothic UI" font-size="28.125" lengthAdjust="spacing" textLength="225.5356" x="1000.2188" y="383.5791">speaker / device</text></g><!--entity MixAdjust--><g class="entity" data-entity="MixAdjust" data-source-line="32" data-uid="ent0013" id="entity_MixAdjust"><rect fill="#F7FBFF" filter="url(#f1fyx1oy43inj)" height="64.3738" rx="18.75" ry="18.75" style="stroke:#000000;stroke-width:0.7813;" width="228.125" x="714.3906" y="134.5129"/><text fill="#000000" font-family="Yu Gothic UI" font-size="28.125" lengthAdjust="spacing" textLength="196.875" x="730.0156" y="177.3291">&#32862;&#12371;&#12360;&#26041;&#12398;&#35519;&#25972;</text></g><g class="entity" data-entity="GMN23" data-source-line="45" data-uid="ent0024" id="entity_GMN23"><path d="M145.25,450.1379 L145.25,498.8867 A0,0 0 0 0 145.25,498.8867 L197.5937,498.8867 L203.8437,529.7161 L210.0937,498.8867 L262.4375,498.8867 A0,0 0 0 0 262.4375,498.8867 L262.4375,465.7629 L246.8125,450.1379 L145.25,450.1379 A0,0 0 0 0 145.25,450.1379" fill="#FEFFDD" filter="url(#f1fyx1oy43inj)" style="stroke:#181818;stroke-width:0.7813;"/><path d="M246.8125,450.1379 L246.8125,465.7629 L262.4375,465.7629 L246.8125,450.1379" fill="#FEFFDD" style="stroke:#181818;stroke-width:0.7813;"/><text fill="#000000" font-family="Yu Gothic UI" font-size="28.125" lengthAdjust="spacing" textLength="84.375" x="154.625" y="485.1416">&#21033;&#29992;&#32773;</text></g><g class="entity" data-entity="GMN26" data-source-line="49" data-uid="ent0027" id="entity_GMN26"><path d="M428,467.3254 L428,516.0742 A0,0 0 0 0 428,516.0742 L543.9063,516.0742 L550.1563,546.3879 L556.4063,516.0742 L672.2993,516.0742 A0,0 0 0 0 672.2993,516.0742 L672.2993,482.9504 L656.6743,467.3254 L428,467.3254 A0,0 0 0 0 428,467.3254" fill="#FEFFDD" filter="url(#f1fyx1oy43inj)" style="stroke:#181818;stroke-width:0.7813;"/><path d="M656.6743,467.3254 L656.6743,482.9504 L672.2993,482.9504 L656.6743,467.3254" fill="#FEFFDD" style="stroke:#181818;stroke-width:0.7813;"/><text fill="#000000" font-family="Yu Gothic UI" font-size="28.125" lengthAdjust="spacing" textLength="211.4868" x="437.375" y="502.3291">AudioSynth&#20316;&#21205;</text></g><g class="entity" data-entity="GMN29" data-source-line="53" data-uid="ent0030" id="entity_GMN29"><path d="M783.9219,261.0754 L783.9219,309.8242 A0,0 0 0 0 783.9219,309.8242 L822.2031,309.8242 L828.4531,340.1379 L834.7031,309.8242 L872.9844,309.8242 A0,0 0 0 0 872.9844,309.8242 L872.9844,276.7004 L857.3594,261.0754 L783.9219,261.0754 A0,0 0 0 0 783.9219,261.0754" fill="#FEFFDD" filter="url(#f1fyx1oy43inj)" style="stroke:#181818;stroke-width:0.7813;"/><path d="M857.3594,261.0754 L857.3594,276.7004 L872.9844,276.7004 L857.3594,261.0754" fill="#FEFFDD" style="stroke:#181818;stroke-width:0.7813;"/><text fill="#000000" font-family="Yu Gothic UI" font-size="28.125" lengthAdjust="spacing" textLength="56.25" x="793.2969" y="296.0791">&#20986;&#21147;</text></g><!--link UserInput to Resume--><g class="link" data-entity-1="UserInput" data-entity-2="Resume" data-source-line="34" data-uid="lnk14" id="link_UserInput_Resume"><path d="M334.6719,579.2004 C381.7813,579.2004 424.0781,579.2004 464.8281,579.2004" fill="none" id="UserInput-to-Resume" style="stroke:#000000;stroke-width:1.5625;"/><polygon fill="#000000" points="474.2031,579.2004,460.1406,572.9504,466.3906,579.2004,460.1406,585.4504,474.2031,579.2004" style="stroke:#000000;stroke-width:1.5625;"/></g><!--link GameAudioSynth to SeBus--><g class="link" data-entity-1="GameAudioSynth" data-entity-2="SeBus" data-source-line="35" data-uid="lnk15" id="link_GameAudioSynth_SeBus"><path d="M336.625,308.8879 C389.4219,308.8879 438.2344,308.8879 480.2813,308.8879" fill="none" id="GameAudioSynth-to-SeBus" style="stroke:#000000;stroke-width:1.5625;"/><polygon fill="#000000" points="489.6563,308.8879,475.5938,302.6379,481.8438,308.8879,475.5938,315.1379,489.6563,308.8879" style="stroke:#000000;stroke-width:1.5625;"/></g><!--link Resume to AudioContext--><g class="link" data-entity-1="Resume" data-entity-2="AudioContext" data-source-line="36" data-uid="lnk16" id="link_Resume_AudioContext"><path d="M625.4531,579.2004 C649.3438,579.2004 667.1406,579.2004 693.625,579.2004" fill="none" id="Resume-to-AudioContext" style="stroke:#000000;stroke-width:1.5625;"/><polygon fill="#000000" points="703,579.2004,688.9375,572.9504,695.1875,579.2004,688.9375,585.4504,703,579.2004" style="stroke:#000000;stroke-width:1.5625;"/></g><!--link SampleHelper to Delay--><g class="link" data-entity-1="SampleHelper" data-entity-2="Delay" data-source-line="37" data-uid="lnk17" id="link_SampleHelper_Delay"><path d="M397.0625,118.2629 C434.5313,118.2629 461.3281,118.2629 488.9219,118.2629" fill="none" id="SampleHelper-to-Delay" style="stroke:#000000;stroke-width:1.5625;"/><polygon fill="#000000" points="498.2969,118.2629,484.2344,112.0129,490.4844,118.2629,484.2344,124.5129,498.2969,118.2629" style="stroke:#000000;stroke-width:1.5625;"/></g><!--link SeBus to Master--><g class="link" data-entity-1="SeBus" data-entity-2="Master" data-source-line="38" data-uid="lnk18" id="link_SeBus_Master"><path d="M610.75,322.6379 C656.3906,333.2629 710.2283,345.7947 756.4314,356.5447" fill="none" id="SeBus-to-Master" style="stroke:#000000;stroke-width:1.5625;"/><polygon fill="#000000" points="765.5625,358.6692,753.2822,349.395,757.9532,356.8988,750.4495,361.5698,765.5625,358.6692" style="stroke:#000000;stroke-width:1.5625;"/></g><!--link BgmBus to Master--><g class="link" data-entity-1="BgmBus" data-entity-2="Master" data-source-line="39" data-uid="lnk19" id="link_BgmBus_Master"><path d="M625.4531,395.8254 C669.2344,390.8567 714.7786,385.6804 756.1849,380.9772" fill="none" id="BgmBus-to-Master" style="stroke:#000000;stroke-width:1.5625;"/><polygon fill="#000000" points="765.5,379.9192,750.822,375.2962,757.7374,380.8009,752.2327,387.7163,765.5,379.9192" style="stroke:#000000;stroke-width:1.5625;"/></g><!--link Delay to MixAdjust--><g class="link" data-entity-1="Delay" data-entity-2="MixAdjust" data-source-line="40" data-uid="lnk20" id="link_Delay_MixAdjust"><path d="M602.1875,127.1536 C633.5313,132.6692 665.8764,138.3563 704.7514,145.2" fill="none" id="Delay-to-MixAdjust" style="stroke:#000000;stroke-width:1.5625;"/><polygon fill="#000000" points="713.9844,146.8254,701.2185,138.232,706.2902,145.4709,699.0512,150.5426,713.9844,146.8254" style="stroke:#000000;stroke-width:1.5625;"/></g><!--link Reverb to MixAdjust--><g class="link" data-entity-1="Reverb" data-entity-2="MixAdjust" data-source-line="41" data-uid="lnk21" id="link_Reverb_MixAdjust"><path d="M609.4063,203.7473 C639.6563,198.5911 668.5707,193.6656 704.43,187.5562" fill="none" id="Reverb-to-MixAdjust" style="stroke:#000000;stroke-width:1.5625;"/><polygon fill="#000000" points="713.6719,185.9817,698.7594,182.1823,705.9703,187.2938,700.8588,194.5047,713.6719,185.9817" style="stroke:#000000;stroke-width:1.5625;"/></g><!--link Master to Speaker--><g class="link" data-entity-1="Master" data-entity-2="Speaker" data-source-line="42" data-uid="lnk22" id="link_Master_Speaker"><path d="M891.0781,372.9504 C918.3906,372.9504 942.3125,372.9504 974.6563,372.9504" fill="none" id="Master-to-Speaker" style="stroke:#000000;stroke-width:1.5625;"/><polygon fill="#000000" points="984.0313,372.9504,969.9688,366.7004,976.2188,372.9504,969.9688,379.2004,984.0313,372.9504" style="stroke:#000000;stroke-width:1.5625;"/></g><!--SRC=[TLGnRnCn6DtlLtmg2mnLQGM22IafK3gKeL47f2nExhl4vCu- -Nn92q8YFLMDg2eYbS90nKhf00CiHQhwOzmB_Hdux6lYYs2A_Txx_BttsJb9POXGIttA6pjCTa4DJrKsLhldawy7az5O3R_dUwTN5qTvzjxpGWmaI0w2TheIV2gmBIbdNjAZB2Q2HD0YxLv7y9Jvgppa0WPTAj7Xaoxn-O2o3aYHkeGVKrY-VzT5C21fA9zo9f-J2E552cjSTcaRjjR_BMlGLmZB3nsoC4XOHqTyxG5iMb-2eO2LUngeS-6Zi4vReRPUO7C9RWKFWbOGQAPeuMhVE8rgGl21IpeU2Eib6CEA6uvn7qlGcvbSKDc9shrKsS_9qU7LnKcJgTqVAZjJMQONi0I6p5JsQG580bi9YdKMfz8zOatFQdQVJHOBtKZgsiOJoCU7fh2gSQiJ4iNwjujXZAB9wciRC3q0-yWa9CLep2aDetrcf9KKkY2DyFOTezeq6vSsdLVrC75RDXco91LORiiQL-5MwWYjDB7DiPucBbTOlI7hdMYEzJ4aEuPxNAogRlieMgNNObd94f54eZ3iXbbMfXKZwUd7jAHVOP-sqJgpeAkx7dvHmoCr74q-dkj_rFNPvUJubpsJRjVybsaYFMzwcx2u-EXcRDMRCenDRda3LARbNefXRLvJPFPb2ZiY5p522qnDsO7CWLPllPHPFSObwYz333nmdcK- -lRdm-drspqFcG-5fgeiGyu2wZUV7np_HrtwpFT_v-y-JpL_0G00]--></g></svg>