<svg xmlns="http://www.w3.org/2000/svg" xmlns:xlink="http://www.w3.org/1999/xlink" contentStyleType="text/css" data-diagram-type="DESCRIPTION" height="257.8125px" preserveAspectRatio="none" style="width:1625px;height:257px;background:#FFFFFF;" version="1.1" viewBox="0 0 1625 257" width="1625px" zoomAndPan="magnify"><title>clip -&gt; action -&gt; state -&gt; task &#23652;&#22259;</title><defs><filter height="300%" id="fhwm7d1kss393" width="300%" x="-1" y="-1"><feGaussianBlur result="blurOut" stdDeviation="3.125"/><feColorMatrix in="blurOut" result="blurOut2" type="matrix" values="0 0 0 0 0 0 0 0 0 0 0 0 0 0 0 0 0 0 .4 0"/><feOffset dx="6.25" dy="6.25" in="blurOut2" result="blurOut3"/><feBlend in="SourceGraphic" in2="blurOut3" mode="normal"/></filter></defs><g><g class="title" data-source-line="1"><text fill="#000000" font-family="Yu Gothic UI" font-size="21.875" font-weight="bold" lengthAdjust="spacing" textLength="401.2268" x="601.4023" y="36.7737">clip -&gt; action -&gt; state -&gt; task &#23652;&#22259;</text></g><!--entity Clip--><g class="entity" data-entity="Clip" data-source-line="19" data-uid="ent0002" id="entity_Clip"><rect fill="#F7FBFF" filter="url(#fhwm7d1kss393)" height="97.4976" rx="18.75" ry="18.75" style="stroke:#000000;stroke-width:0.7813;" width="300.8682" x="44.0938" y="69.5129"/><text fill="#000000" font-family="Yu Gothic UI" font-size="28.125" lengthAdjust="spacing" textLength="48.3673" x="59.7188" y="112.3291">clip</text><text fill="#000000" font-family="Yu Gothic UI" font-size="28.125" lengthAdjust="spacing" textLength="269.6182" x="59.7188" y="145.4529">&#20803;&#12398; animation data</text></g><!--entity Action--><g class="entity" data-entity="Action" data-source-line="20" data-uid="ent0003" id="entity_Action"><rect fill="#F7FBFF" filter="url(#fhwm7d1kss393)" height="97.4976" rx="18.75" ry="18.75" style="stroke:#000000;stroke-width:0.7813;" width="284.375" x="425.7813" y="69.5129"/><text fill="#000000" font-family="Yu Gothic UI" font-size="28.125" lengthAdjust="spacing" textLength="83.3176" x="441.4063" y="112.3291">action</text><text fill="#000000" font-family="Yu Gothic UI" font-size="28.125" lengthAdjust="spacing" textLength="253.125" x="441.4063" y="145.4529">&#20351;&#12358;&#21306;&#38291;&#12434;&#20999;&#12426;&#20986;&#12377;</text></g><!--entity State--><g class="entity" data-entity="State" data-source-line="21" data-uid="ent0004" id="entity_State"><rect fill="#F7FBFF" filter="url(#fhwm7d1kss393)" height="97.4976" rx="18.75" ry="18.75" style="stroke:#000000;stroke-width:0.7813;" width="329.2404" x="756.25" y="69.5129"/><text fill="#000000" font-family="Yu Gothic UI" font-size="28.125" lengthAdjust="spacing" textLength="66.5771" x="771.875" y="112.3291">state</text><text fill="#000000" font-family="Yu Gothic UI" font-size="28.125" lengthAdjust="spacing" textLength="297.9904" x="771.875" y="145.4529">&#20170;&#12393;&#12398; action &#12434;&#36984;&#12406;&#12363;</text></g><!--entity Task--><g class="entity" data-entity="Task" data-source-line="22" data-uid="ent0005" id="entity_Task"><rect fill="#F7FBFF" filter="url(#fhwm7d1kss393)" height="97.4976" rx="18.75" ry="18.75" style="stroke:#000000;stroke-width:0.7813;" width="284.375" x="1117.5156" y="69.5129"/><text fill="#000000" font-family="Yu Gothic UI" font-size="28.125" lengthAdjust="spacing" textLength="210.1959" x="1133.1406" y="112.3291">schedule / task</text><text fill="#000000" font-family="Yu Gothic UI" font-size="28.125" lengthAdjust="spacing" textLength="253.125" x="1133.1406" y="145.4529">&#26178;&#38291;&#36914;&#34892;&#12392;&#35036;&#38291;&#23455;&#34892;</text></g><!--entity NodePose--><g class="entity" data-entity="NodePose" data-source-line="23" data-uid="ent0006" id="entity_NodePose"><rect fill="#F7FBFF" filter="url(#fhwm7d1kss393)" height="97.4976" rx="18.75" ry="18.75" style="stroke:#000000;stroke-width:0.7813;" width="173.2346" x="1433.9219" y="69.5129"/><text fill="#000000" font-family="Yu Gothic UI" font-size="28.125" lengthAdjust="spacing" textLength="141.9846" x="1449.5469" y="112.3291">node pose</text><text fill="#000000" font-family="Yu Gothic UI" font-size="28.125" lengthAdjust="spacing" textLength="94.5786" x="1449.5469" y="145.4529">update</text></g><g class="entity" data-entity="GMN11" data-source-line="31" data-uid="ent0012" id="entity_GMN11"><path d="M9.375,198.5754 L9.375,247.3242 A0,0 0 0 0 9.375,247.3242 L379.6875,247.3242 A0,0 0 0 0 379.6875,247.3242 L379.6875,214.2004 L364.0625,198.5754 L200.7813,198.5754 L194.5313,167.4817 L188.2813,198.5754 L9.375,198.5754 A0,0 0 0 0 9.375,198.5754" fill="#FEFFDD" filter="url(#fhwm7d1kss393)" style="stroke:#181818;stroke-width:0.7813;"/><path d="M364.0625,198.5754 L364.0625,214.2004 L379.6875,214.2004 L364.0625,198.5754" fill="#FEFFDD" style="stroke:#181818;stroke-width:0.7813;"/><text fill="#000000" font-family="Yu Gothic UI" font-size="28.125" lengthAdjust="spacing" textLength="337.5" x="18.75" y="233.5791">&#12450;&#12475;&#12483;&#12488;&#12364;&#25345;&#12388;&#36899;&#32154;&#12487;&#12540;&#12479;</text></g><g class="entity" data-entity="GMN14" data-source-line="35" data-uid="ent0015" id="entity_GMN14"><path d="M410.9375,198.5754 L410.9375,247.3242 A0,0 0 0 0 410.9375,247.3242 L725,247.3242 A0,0 0 0 0 725,247.3242 L725,214.2004 L709.375,198.5754 L574.2188,198.5754 L567.9688,167.4817 L561.7188,198.5754 L410.9375,198.5754 A0,0 0 0 0 410.9375,198.5754" fill="#FEFFDD" filter="url(#fhwm7d1kss393)" style="stroke:#181818;stroke-width:0.7813;"/><path d="M709.375,198.5754 L709.375,214.2004 L725,214.2004 L709.375,198.5754" fill="#FEFFDD" style="stroke:#181818;stroke-width:0.7813;"/><text fill="#000000" font-family="Yu Gothic UI" font-size="28.125" lengthAdjust="spacing" textLength="281.25" x="420.3125" y="233.5791">&#12393;&#12371;&#12434;&#20351;&#12358;&#12363;&#12434;&#27770;&#12417;&#12427;</text></g><g class="entity" data-entity="GMN17" data-source-line="39" data-uid="ent0018" id="entity_GMN17"><path d="M763.8438,198.5754 L763.8438,247.3242 A0,0 0 0 0 763.8438,247.3242 L1077.9063,247.3242 A0,0 0 0 0 1077.9063,247.3242 L1077.9063,214.2004 L1062.2813,198.5754 L927.125,198.5754 L920.875,167.4817 L914.625,198.5754 L763.8438,198.5754 A0,0 0 0 0 763.8438,198.5754" fill="#FEFFDD" filter="url(#fhwm7d1kss393)" style="stroke:#181818;stroke-width:0.7813;"/><path d="M1062.2813,198.5754 L1062.2813,214.2004 L1077.9063,214.2004 L1062.2813,198.5754" fill="#FEFFDD" style="stroke:#181818;stroke-width:0.7813;"/><text fill="#000000" font-family="Yu Gothic UI" font-size="28.125" lengthAdjust="spacing" textLength="281.25" x="773.2188" y="233.5791">&#29366;&#27841;&#12395;&#24540;&#12376;&#12390;&#36984;&#25246;&#12377;&#12427;</text></g><g class="entity" data-entity="GMN20" data-source-line="43" data-uid="ent0021" id="entity_GMN20"><path d="M1116.7344,198.5754 L1116.7344,247.3242 A0,0 0 0 0 1116.7344,247.3242 L1402.6719,247.3242 A0,0 0 0 0 1402.6719,247.3242 L1402.6719,214.2004 L1387.0469,198.5754 L1265.9531,198.5754 L1259.7031,167.4817 L1253.4531,198.5754 L1116.7344,198.5754 A0,0 0 0 0 1116.7344,198.5754" fill="#FEFFDD" filter="url(#fhwm7d1kss393)" style="stroke:#181818;stroke-width:0.7813;"/><path d="M1387.0469,198.5754 L1387.0469,214.2004 L1402.6719,214.2004 L1387.0469,198.5754" fill="#FEFFDD" style="stroke:#181818;stroke-width:0.7813;"/><text fill="#000000" font-family="Yu Gothic UI" font-size="28.125" lengthAdjust="spacing" textLength="253.125" x="1126.1094" y="233.5791">&#23455;&#38555;&#12395;&#26178;&#38291;&#12434;&#36914;&#12417;&#12427;</text></g><!--link Clip to Action--><g class="link" data-entity-1="Clip" data-entity-2="Action" data-source-line="25" data-uid="lnk7" id="link_Clip_Action"><path d="M345.6406,118.2629 C371.9375,118.2629 389.8594,118.2629 415.9219,118.2629" fill="none" id="Clip-to-Action" style="stroke:#000000;stroke-width:1.5625;"/><polygon fill="#000000" points="425.2969,118.2629,411.2344,112.0129,417.4844,118.2629,411.2344,124.5129,425.2969,118.2629" style="stroke:#000000;stroke-width:1.5625;"/></g><!--link Action to State--><g class="link" data-entity-1="Action" data-entity-2="State" data-source-line="26" data-uid="lnk8" id="link_Action_State"><path d="M710.7969,118.2629 C725.5781,118.2629 731.3281,118.2629 746.3438,118.2629" fill="none" id="Action-to-State" style="stroke:#000000;stroke-width:1.5625;"/><polygon fill="#000000" points="755.7188,118.2629,741.6563,112.0129,747.9063,118.2629,741.6563,124.5129,755.7188,118.2629" style="stroke:#000000;stroke-width:1.5625;"/></g><!--link State to Task--><g class="link" data-entity-1="State" data-entity-2="Task" data-source-line="27" data-uid="lnk9" id="link_State_Task"><path d="M1085.8594,118.2629 C1096.2031,118.2629 1097.1875,118.2629 1107.4219,118.2629" fill="none" id="State-to-Task" style="stroke:#000000;stroke-width:1.5625;"/><polygon fill="#000000" points="1116.7969,118.2629,1102.7344,112.0129,1108.9844,118.2629,1102.7344,124.5129,1116.7969,118.2629" style="stroke:#000000;stroke-width:1.5625;"/></g><!--link Task to NodePose--><g class="link" data-entity-1="Task" data-entity-2="NodePose" data-source-line="28" data-uid="lnk10" id="link_Task_NodePose"><path d="M1402.1875,118.2629 C1412.7656,118.2629 1413.8594,118.2629 1423.9219,118.2629" fill="none" id="Task-to-NodePose" style="stroke:#000000;stroke-width:1.5625;"/><polygon fill="#000000" points="1433.2969,118.2629,1419.2344,112.0129,1425.4844,118.2629,1419.2344,124.5129,1433.2969,118.2629" style="stroke:#000000;stroke-width:1.5625;"/></g><!--SRC=[VLBVQnD147w_lsAepw8jYZu9CQ3uKiJeWv2NJMulMNBPFVRs22X2zeAcf7co8FO7YhQ88XJQGf1KoH-pNjhy5yxk1RhM7o_BxCnyCzzyCugfc48pPWbSlGEagPZWraeLKTGQYgGTA8uEYjsJ88Xff409aApLLX0oIHqWI3kC9qIIBZH8izEI8kDXLSH2Gg_D5FNYQPk4eiTu2vJC_42OC5YzUTttq8XaiRedk5edNGfFCxWlL9iruSc3lwVLs3CAgxUze2L8U0j7V1u0F2fvIKubhDr0nrqXGofBfeqOgLlVfGckHBUYHXHXnBRmSrzuZIfIYfuVz3WGtabf0cl-S5o4TEaCBaYks4NKUV5oOFGX4Cwwn2qa98gi04cXYd4_lrnOdV_yCJFwLJ6UBjvicVnriJ4q-QWOJetUThXAkISFwHQCmDEHqLzSjtBtY5xeRqPFZDvqq9fD_0tPRDCmG-kQEuuwds_ds7RHFpx_C3Rwy_d-7dwBm_VuTHKUOvPVmCuEYKYnVPRWQDHbhQFt8Jg3eEgk4MzloRgol4hqb6HgvN7YtvMsZ_jTbE024nf2AT454PMocVoZoK_DO6066qQFvsDjzC6YltyssJ63eHbyD_aie3m42_wZn9AB4yjAN2gE8g4zFvgQN9jyyz_malZPQ38_mRPVYzcUqM-D_eHQpqVlS4t_HRinKT75pYw2Ixtjelh7b_h-0W00]--></g></svg>