<?xml version="1.0" encoding="UTF-8"?>
<svg xmlns="http://www.w3.org/2000/svg" width="1280" height="760" viewBox="0 0 1280 760" role="img" aria-label="1 頂点スキニング図">
  <defs>
    <linearGradient id="bg" x1="0" y1="0" x2="1" y2="1">
      <stop offset="0%" stop-color="#fbfdff"/>
      <stop offset="100%" stop-color="#eef4fb"/>
    </linearGradient>
    <marker id="arrow" viewBox="0 0 10 10" refX="8.4" refY="5" markerWidth="4.1" markerHeight="4.1" orient="auto-start-reverse">
      <path d="M 0 0 L 10 5 L 0 10 z" fill="context-stroke"/>
    </marker>
  </defs>
  <rect width="1280" height="760" fill="url(#bg)"/>
  
    <text x="56" y="58" text-anchor="start" font-size="22" font-weight="700" fill="#374151" font-family="'Segoe UI', 'Hiragino Sans', 'Yu Gothic UI', sans-serif"><tspan x="56" dy="0">第28章</tspan></text>
    <text x="56" y="98" text-anchor="start" font-size="38" font-weight="700" fill="#111827" font-family="'Segoe UI', 'Hiragino Sans', 'Yu Gothic UI', sans-serif"><tspan x="56" dy="0">1 頂点スキニング図</tspan></text>
    <line x1="56" y1="122" x2="1224" y2="122" stroke="#d8e3f4" stroke-width="2"/>
  
  
    <rect x="96" y="334" width="172" height="90" rx="20" ry="20" fill="#f7fbff" stroke="#2f537f" stroke-width="2.5"/><text x="182" y="379" text-anchor="middle" font-size="26" font-weight="600" fill="#111827" font-family="'Segoe UI', 'Hiragino Sans', 'Yu Gothic UI', sans-serif"><tspan x="182" dy="0">vertex p</tspan></text>
    <rect x="366" y="238" width="220" height="90" rx="20" ry="20" fill="#f7fbff" stroke="#2f537f" stroke-width="2.5"/><text x="476" y="283" text-anchor="middle" font-size="26" font-weight="600" fill="#111827" font-family="'Segoe UI', 'Hiragino Sans', 'Yu Gothic UI', sans-serif"><tspan x="476" dy="0">bone 0 matrix * p</tspan></text>
    <rect x="366" y="430" width="220" height="90" rx="20" ry="20" fill="#f7fbff" stroke="#2f537f" stroke-width="2.5"/><text x="476" y="475" text-anchor="middle" font-size="26" font-weight="600" fill="#111827" font-family="'Segoe UI', 'Hiragino Sans', 'Yu Gothic UI', sans-serif"><tspan x="476" dy="0">bone 1 matrix * p</tspan></text>
    <rect x="668" y="238" width="188" height="90" rx="20" ry="20" fill="#f7fbff" stroke="#2f537f" stroke-width="2.5"/><text x="762" y="283" text-anchor="middle" font-size="26" font-weight="600" fill="#111827" font-family="'Segoe UI', 'Hiragino Sans', 'Yu Gothic UI', sans-serif"><tspan x="762" dy="0">w0 * result</tspan></text>
    <rect x="668" y="430" width="188" height="90" rx="20" ry="20" fill="#f7fbff" stroke="#2f537f" stroke-width="2.5"/><text x="762" y="475" text-anchor="middle" font-size="26" font-weight="600" fill="#111827" font-family="'Segoe UI', 'Hiragino Sans', 'Yu Gothic UI', sans-serif"><tspan x="762" dy="0">w1 * result</tspan></text>
    <rect x="938" y="334" width="188" height="90" rx="20" ry="20" fill="#f7fbff" stroke="#2f537f" stroke-width="2.5"/><text x="1032" y="379" text-anchor="middle" font-size="26" font-weight="600" fill="#111827" font-family="'Segoe UI', 'Hiragino Sans', 'Yu Gothic UI', sans-serif"><tspan x="1032" dy="0">weighted sum</tspan></text>
    <rect x="1144" y="334" width="92" height="90" rx="20" ry="20" fill="#eef8f5" stroke="#4a9c83" stroke-width="2.5"/><text x="1190" y="379" text-anchor="middle" font-size="26" font-weight="600" fill="#111827" font-family="'Segoe UI', 'Hiragino Sans', 'Yu Gothic UI', sans-serif"><tspan x="1190" dy="-0.675em">final</tspan><tspan x="1190" dy="1.35em">position</tspan></text>

    <line x1="268" y1="365" x2="366" y2="283" stroke="#4b5563" stroke-width="3"  marker-end="url(#arrow)"/>
    <line x1="268" y1="393" x2="366" y2="475" stroke="#4b5563" stroke-width="3"  marker-end="url(#arrow)"/>
    <line x1="586" y1="283" x2="668" y2="283" stroke="#4b5563" stroke-width="3"  marker-end="url(#arrow)"/>
    <line x1="586" y1="475" x2="668" y2="475" stroke="#4b5563" stroke-width="3"  marker-end="url(#arrow)"/>
    <line x1="856" y1="283" x2="938" y2="365" stroke="#4b5563" stroke-width="3"  marker-end="url(#arrow)"/>
    <line x1="856" y1="475" x2="938" y2="393" stroke="#4b5563" stroke-width="3"  marker-end="url(#arrow)"/>
    <line x1="1126" y1="379" x2="1144" y2="379" stroke="#4b5563" stroke-width="3"  marker-end="url(#arrow)"/>

    <text x="640" y="612" text-anchor="middle" font-size="26" font-weight="500" fill="#374151" font-family="'Segoe UI', 'Hiragino Sans', 'Yu Gothic UI', sans-serif"><tspan x="640" dy="-0.675em">複数の bone で変換した結果を</tspan><tspan x="640" dy="1.35em">weight で混ぜて最終位置を得る</tspan></text>
  
</svg>