<?xml version="1.0" encoding="UTF-8"?>
<svg xmlns="http://www.w3.org/2000/svg" width="1280" height="760" viewBox="0 0 1280 760" role="img" aria-label="ポストプロセス描画フロー図">
  <defs>
    <linearGradient id="bg" x1="0" y1="0" x2="1" y2="1">
      <stop offset="0%" stop-color="#fbfdff"/>
      <stop offset="100%" stop-color="#eef4fb"/>
    </linearGradient>
    <marker id="arrow" viewBox="0 0 10 10" refX="8.4" refY="5" markerWidth="4.1" markerHeight="4.1" orient="auto-start-reverse">
      <path d="M 0 0 L 10 5 L 0 10 z" fill="context-stroke"/>
    </marker>
  </defs>
  <rect width="1280" height="760" fill="url(#bg)"/>
  
    <text x="56" y="58" text-anchor="start" font-size="22" font-weight="700" fill="#374151" font-family="'Segoe UI', 'Hiragino Sans', 'Yu Gothic UI', sans-serif"><tspan x="56" dy="0">第20章</tspan></text>
    <text x="56" y="98" text-anchor="start" font-size="38" font-weight="700" fill="#111827" font-family="'Segoe UI', 'Hiragino Sans', 'Yu Gothic UI', sans-serif"><tspan x="56" dy="0">ポストプロセス描画フロー図</tspan></text>
    <line x1="56" y1="122" x2="1224" y2="122" stroke="#d8e3f4" stroke-width="2"/>
  
  
    <rect x="78" y="314" width="168" height="94" rx="20" ry="20" fill="#f7fbff" stroke="#2f537f" stroke-width="2.5"/><text x="162" y="361" text-anchor="middle" font-size="26" font-weight="600" fill="#111827" font-family="'Segoe UI', 'Hiragino Sans', 'Yu Gothic UI', sans-serif"><tspan x="162" dy="0">beginScene()</tspan></text>
    <rect x="300" y="314" width="168" height="94" rx="20" ry="20" fill="#f7fbff" stroke="#2f537f" stroke-width="2.5"/><text x="384" y="361" text-anchor="middle" font-size="26" font-weight="600" fill="#111827" font-family="'Segoe UI', 'Hiragino Sans', 'Yu Gothic UI', sans-serif"><tspan x="384" dy="0">space.draw()</tspan></text>
    <rect x="522" y="298" width="224" height="126" rx="20" ry="20" fill="#eef8f5" stroke="#4a9c83" stroke-width="2.5"/><text x="634" y="361" text-anchor="middle" font-size="26" font-weight="600" fill="#111827" font-family="'Segoe UI', 'Hiragino Sans', 'Yu Gothic UI', sans-serif"><tspan x="634" dy="-0.675em">offscreen</tspan><tspan x="634" dy="1.35em">color + depth</tspan></text>
    <rect x="800" y="314" width="198" height="94" rx="20" ry="20" fill="#f7fbff" stroke="#2f537f" stroke-width="2.5"/><text x="899" y="361" text-anchor="middle" font-size="26" font-weight="600" fill="#111827" font-family="'Segoe UI', 'Hiragino Sans', 'Yu Gothic UI', sans-serif"><tspan x="899" dy="-0.675em">Bloom / DOF /</tspan><tspan x="899" dy="1.35em">Vignette</tspan></text>
    <rect x="1052" y="314" width="168" height="94" rx="20" ry="20" fill="#f7fbff" stroke="#2f537f" stroke-width="2.5"/><text x="1136" y="361" text-anchor="middle" font-size="26" font-weight="600" fill="#111827" font-family="'Segoe UI', 'Hiragino Sans', 'Yu Gothic UI', sans-serif"><tspan x="1136" dy="-0.675em">render to</tspan><tspan x="1136" dy="1.35em">canvas</tspan></text>
    <rect x="800" y="534" width="198" height="84" rx="20" ry="20" fill="#fff8ef" stroke="#bc8752" stroke-width="2.5"/><text x="899" y="576" text-anchor="middle" font-size="26" font-weight="600" fill="#111827" font-family="'Segoe UI', 'Hiragino Sans', 'Yu Gothic UI', sans-serif"><tspan x="899" dy="0">clearDepthBuffer()</tspan></text>
    <rect x="1052" y="528" width="168" height="96" rx="20" ry="20" fill="#f7fbff" stroke="#2f537f" stroke-width="2.5"/><text x="1136" y="576" text-anchor="middle" font-size="26" font-weight="600" fill="#111827" font-family="'Segoe UI', 'Hiragino Sans', 'Yu Gothic UI', sans-serif"><tspan x="1136" dy="-0.675em">Message /</tspan><tspan x="1136" dy="1.35em">HUD / overlay</tspan></text>

    <line x1="246" y1="361" x2="300" y2="361" stroke="#4b5563" stroke-width="3"  marker-end="url(#arrow)"/>
    <line x1="468" y1="361" x2="522" y2="361" stroke="#4b5563" stroke-width="3"  marker-end="url(#arrow)"/>
    <line x1="746" y1="361" x2="800" y2="361" stroke="#4b5563" stroke-width="3"  marker-end="url(#arrow)"/>
    <line x1="998" y1="361" x2="1052" y2="361" stroke="#4b5563" stroke-width="3"  marker-end="url(#arrow)"/>
    <line x1="1136" y1="408" x2="1136" y2="528" stroke="#4b5563" stroke-width="3"  marker-end="url(#arrow)"/>
    <line x1="998" y1="576" x2="1052" y2="576" stroke="#4b5563" stroke-width="3"  marker-end="url(#arrow)"/>

    <text x="634" y="468" text-anchor="middle" font-size="24" font-weight="500" fill="#374151" font-family="'Segoe UI', 'Hiragino Sans', 'Yu Gothic UI', sans-serif"><tspan x="634" dy="0">3D scene をいったんテクスチャへ描く</tspan></text>
    <text x="1136" y="662" text-anchor="middle" font-size="24" font-weight="500" fill="#374151" font-family="'Segoe UI', 'Hiragino Sans', 'Yu Gothic UI', sans-serif"><tspan x="1136" dy="0">HUD は最後に重ねる</tspan></text>
  
</svg>