<svg xmlns="http://www.w3.org/2000/svg" xmlns:xlink="http://www.w3.org/1999/xlink" contentStyleType="text/css" data-diagram-type="DESCRIPTION" height="582.8125px" preserveAspectRatio="none" style="width:842px;height:582px;background:#FFFFFF;" version="1.1" viewBox="0 0 842 582" width="842.1875px" zoomAndPan="magnify"><title>tile_sim &#12398;&#27083;&#25104;</title><defs><filter height="300%" id="fta7qctbbwzmf" width="300%" x="-1" y="-1"><feGaussianBlur result="blurOut" stdDeviation="3.125"/><feColorMatrix in="blurOut" result="blurOut2" type="matrix" values="0 0 0 0 0 0 0 0 0 0 0 0 0 0 0 0 0 0 .4 0"/><feOffset dx="6.25" dy="6.25" in="blurOut2" result="blurOut3"/><feBlend in="SourceGraphic" in2="blurOut3" mode="normal"/></filter></defs><g><g class="title" data-source-line="1"><text fill="#000000" font-family="Yu Gothic UI" font-size="21.875" font-weight="bold" lengthAdjust="spacing" textLength="160.3775" x="330.5391" y="36.7737">tile_sim &#12398;&#27083;&#25104;</text></g><!--entity MainJs--><g class="entity" data-entity="MainJs" data-source-line="19" data-uid="ent0002" id="entity_MainJs"><rect fill="#F7FBFF" filter="url(#fta7qctbbwzmf)" height="64.3738" rx="18.75" ry="18.75" style="stroke:#000000;stroke-width:0.7813;" width="130.4153" x="351" y="147.9348"/><text fill="#000000" font-family="Yu Gothic UI" font-size="28.125" lengthAdjust="spacing" textLength="99.1653" x="366.625" y="190.751">main.js</text></g><!--entity ControllerJs--><g class="entity" data-entity="ControllerJs" data-source-line="20" data-uid="ent0003" id="entity_ControllerJs"><rect fill="#F7FBFF" filter="url(#fta7qctbbwzmf)" height="64.3738" rx="18.75" ry="18.75" style="stroke:#000000;stroke-width:0.7813;" width="194.9188" x="10.9375" y="260.1223"/><text fill="#000000" font-family="Yu Gothic UI" font-size="28.125" lengthAdjust="spacing" textLength="163.6688" x="26.5625" y="302.9385">controller.js</text></g><!--entity CameraJs--><g class="entity" data-entity="CameraJs" data-source-line="21" data-uid="ent0004" id="entity_CameraJs"><rect fill="#F7FBFF" filter="url(#fta7qctbbwzmf)" height="64.3738" rx="18.75" ry="18.75" style="stroke:#000000;stroke-width:0.7813;" width="161.9461" x="236.7969" y="260.1223"/><text fill="#000000" font-family="Yu Gothic UI" font-size="28.125" lengthAdjust="spacing" textLength="130.6961" x="252.4219" y="302.9385">camera.js</text></g><!--entity MissionJs--><g class="entity" data-entity="MissionJs" data-source-line="22" data-uid="ent0005" id="entity_MissionJs"><rect fill="#F7FBFF" filter="url(#fta7qctbbwzmf)" height="64.3738" rx="18.75" ry="18.75" style="stroke:#000000;stroke-width:0.7813;" width="168.9636" x="430.1719" y="260.1223"/><text fill="#000000" font-family="Yu Gothic UI" font-size="28.125" lengthAdjust="spacing" textLength="137.7136" x="445.7969" y="302.9385">mission.js</text></g><!--entity TerrainJs--><g class="entity" data-entity="TerrainJs" data-source-line="23" data-uid="ent0006" id="entity_TerrainJs"><rect fill="#F7FBFF" filter="url(#fta7qctbbwzmf)" height="97.4976" rx="18.75" ry="18.75" style="stroke:#000000;stroke-width:0.7813;" width="194.8776" x="629.7031" y="243.5598"/><text fill="#000000" font-family="Yu Gothic UI" font-size="28.125" lengthAdjust="spacing" textLength="145.7611" x="645.3281" y="286.376">terrain.js /</text><text fill="#000000" font-family="Yu Gothic UI" font-size="28.125" lengthAdjust="spacing" textLength="163.6276" x="645.3281" y="319.4998">constants.js</text></g><!--entity AlphaActorJs--><g class="entity" data-entity="AlphaActorJs" data-source-line="24" data-uid="ent0007" id="entity_AlphaActorJs"><rect fill="#F7FBFF" filter="url(#fta7qctbbwzmf)" height="64.3738" rx="18.75" ry="18.75" style="stroke:#000000;stroke-width:0.7813;" width="220.6955" x="65.2344" y="388.8723"/><text fill="#000000" font-family="Yu Gothic UI" font-size="28.125" lengthAdjust="spacing" textLength="189.4455" x="80.8594" y="431.6885">alpha_actor.js</text></g><!--entity EnemyUnitsJs--><g class="entity" data-entity="EnemyUnitsJs" data-source-line="25" data-uid="ent0008" id="entity_EnemyUnitsJs"><rect fill="#F7FBFF" filter="url(#fta7qctbbwzmf)" height="97.4976" rx="18.75" ry="18.75" style="stroke:#000000;stroke-width:0.7813;" width="258.3923" x="351.0781" y="372.3098"/><text fill="#000000" font-family="Yu Gothic UI" font-size="28.125" lengthAdjust="spacing" textLength="227.1423" x="366.7031" y="415.126">enemy_units.js /</text><text fill="#000000" font-family="Yu Gothic UI" font-size="28.125" lengthAdjust="spacing" textLength="220.2484" x="366.7031" y="448.2498">support_units.js</text></g><!--entity HumanRuntime--><g class="entity" data-entity="HumanRuntime" data-source-line="26" data-uid="ent0009" id="entity_HumanRuntime"><rect fill="#F7FBFF" filter="url(#fta7qctbbwzmf)" height="64.3738" rx="18.75" ry="18.75" style="stroke:#000000;stroke-width:0.7813;" width="293.5623" x="28.7969" y="501.0598"/><text fill="#000000" font-family="Yu Gothic UI" font-size="28.125" lengthAdjust="spacing" textLength="262.3123" x="44.4219" y="543.876">human.glb runtime</text></g><g class="entity" data-entity="GMN20" data-source-line="41" data-uid="ent0021" id="entity_GMN20"><path d="M85.1563,67.9504 L85.1563,116.6992 A0,0 0 0 0 85.1563,116.6992 L409.9531,116.6992 L416.2031,147.1848 L422.4531,116.6992 L747.2519,116.6992 A0,0 0 0 0 747.2519,116.6992 L747.2519,83.5754 L731.6269,67.9504 L85.1563,67.9504 A0,0 0 0 0 85.1563,67.9504" fill="#FEFFDD" filter="url(#fta7qctbbwzmf)" style="stroke:#181818;stroke-width:0.7813;"/><path d="M731.6269,67.9504 L731.6269,83.5754 L747.2519,83.5754 L731.6269,67.9504" fill="#FEFFDD" style="stroke:#181818;stroke-width:0.7813;"/><text fill="#000000" font-family="Yu Gothic UI" font-size="28.125" lengthAdjust="spacing" textLength="629.2831" x="94.5313" y="102.9541">&#24441;&#21106;&#12434;&#20998;&#12369;&#12390;&#35501;&#12416;&#12392; tile_sim &#12398;&#35373;&#35336;&#12364;&#36861;&#12356;&#12420;&#12377;&#12356;</text></g><!--link MainJs to ControllerJs--><g class="link" data-entity-1="MainJs" data-entity-2="ControllerJs" data-source-line="28" data-uid="lnk10" id="link_MainJs_ControllerJs"><path d="M350.6094,200.8567 C312.4688,212.4036 263.6406,227.8723 220.8906,243.5598 C207.5781,248.4504 202.1857,250.4621 188.7014,256.0089" fill="none" id="MainJs-to-ControllerJs" style="stroke:#000000;stroke-width:1.5625;"/><polygon fill="#000000" points="180.0313,259.5754,195.4141,260.0058,187.2563,256.6034,190.6587,248.4456,180.0313,259.5754" style="stroke:#000000;stroke-width:1.5625;"/></g><!--link MainJs to CameraJs--><g class="link" data-entity-1="MainJs" data-entity-2="CameraJs" data-source-line="29" data-uid="lnk11" id="link_MainJs_CameraJs"><path d="M388.2656,212.6536 C374.8438,227.5129 365.1074,238.3015 351.7324,253.1296" fill="none" id="MainJs-to-CameraJs" style="stroke:#000000;stroke-width:1.5625;"/><polygon fill="#000000" points="345.4531,260.0911,359.513,253.8351,350.6858,254.2899,350.231,245.4627,345.4531,260.0911" style="stroke:#000000;stroke-width:1.5625;"/></g><!--link MainJs to MissionJs--><g class="link" data-entity-1="MainJs" data-entity-2="MissionJs" data-source-line="30" data-uid="lnk12" id="link_MainJs_MissionJs"><path d="M444.1563,212.6536 C457.5625,227.5129 467.3145,238.3015 480.6895,253.1296" fill="none" id="MainJs-to-MissionJs" style="stroke:#000000;stroke-width:1.5625;"/><polygon fill="#000000" points="486.9688,260.0911,482.1909,245.4627,481.736,254.2899,472.9089,253.8351,486.9688,260.0911" style="stroke:#000000;stroke-width:1.5625;"/></g><!--link MainJs to TerrainJs--><g class="link" data-entity-1="MainJs" data-entity-2="TerrainJs" data-source-line="31" data-uid="lnk13" id="link_MainJs_TerrainJs"><path d="M481.9687,200.4973 C520.8594,212.0286 570.9063,227.6223 614.6406,243.5598 C619.4219,245.3098 615.5525,243.7575 620.4432,245.6482" fill="none" id="MainJs-to-TerrainJs" style="stroke:#000000;stroke-width:1.5625;"/><polygon fill="#000000" points="629.1875,249.0286,618.3246,238.1284,621.9005,246.2116,613.8174,249.7875,629.1875,249.0286" style="stroke:#000000;stroke-width:1.5625;"/></g><!--link ControllerJs to AlphaActorJs--><g class="link" data-entity-1="ControllerJs" data-entity-2="AlphaActorJs" data-source-line="32" data-uid="lnk14" id="link_ControllerJs_AlphaActorJs"><path d="M125,324.9348 C135.3438,344.2629 144.173,360.7613 154.5167,380.1051" fill="none" id="ControllerJs-to-AlphaActorJs" style="stroke:#000000;stroke-width:1.5625;"/><polygon fill="#000000" points="158.9375,388.3723,157.8178,373.0243,155.2535,381.4829,146.7948,378.9186,158.9375,388.3723" style="stroke:#000000;stroke-width:1.5625;"/></g><!--link MissionJs to EnemyUnitsJs--><g class="link" data-entity-1="MissionJs" data-entity-2="EnemyUnitsJs" data-source-line="33" data-uid="lnk15" id="link_MissionJs_EnemyUnitsJs"><path d="M506.1563,324.9348 C502.2969,339.0286 500.1112,346.9693 495.8299,362.6412" fill="none" id="MissionJs-to-EnemyUnitsJs" style="stroke:#000000;stroke-width:1.5625;"/><polygon fill="#000000" points="493.3594,371.6848,503.0943,359.7664,495.4182,364.1485,491.0361,356.4724,493.3594,371.6848" style="stroke:#000000;stroke-width:1.5625;"/></g><!--link AlphaActorJs to HumanRuntime--><g class="link" data-entity-1="AlphaActorJs" data-entity-2="HumanRuntime" data-source-line="34" data-uid="lnk16" id="link_AlphaActorJs_HumanRuntime"><path d="M175.5781,453.5911 C175.5781,468.4504 175.5781,476.8254 175.5781,491.6536" fill="none" id="AlphaActorJs-to-HumanRuntime" style="stroke:#000000;stroke-width:1.5625;"/><polygon fill="#000000" points="175.5781,501.0286,181.8281,486.9661,175.5781,493.2161,169.3281,486.9661,175.5781,501.0286" style="stroke:#000000;stroke-width:1.5625;"/></g><!--link ControllerJs to CameraJs--><!--link CameraJs to MissionJs--><!--link AlphaActorJs to EnemyUnitsJs--><!--SRC=[RLHDYzH04BtdLnJhULTtKVGaZ8kVe8VLFOZAq9bqadQIhj1TOL0HpB38Y1xKctz01s4zUFEm-6EQMUPds9sOJFVehVgzLrMlgjCXGGK74WKVQr62QNwSVtj_llWOHOGL44ACH5X28XIVa40PwQcG5LEiX9XDffd2MYQ7MA22MIw8UxpEMO8p8JCWLVj4KWdOltB9HtZAwe9keQG7hEJmk8RRIBcOmF7T_yiUYfSSzgzvf3F8P6R7UHK177M-bEGA3YvRu0QgXAlEQLnOwmxRck12UZMDqzGoheMlVUqr6Yc5Cv_qF30vrRo20tyuYGd_2qORapib4tBlkTu1fk6-ZUzfdvrO0mgBWgjUSpWWMqgxCCK6LNiA5QNGsbxTqAmxXXhYIdM6uE9JQRjhov3kSnvrT9Z3YYfdOpOX74oE73HoI2ZbafSlnhKKRKdNGjTLXOe6h4s_wMJ73WdJyxfaSYyhOb2r957oLdt7eKST44NT3c5tztguAX_lb-DXcsruu6PSlrHB1HCEoIqLkFTrBHkw3Ui-oKMISFbCYImdtsWV_2lP-0uxRUi2Kv54ii_TFcrC-uzkTVPhzUwdcNzUBTwQvfDflgw_dvhv6zCiWn_3UdcwNYvCys7z-ymq9sP-OfelDeYuJC3L_GC0]--></g></svg>