<svg xmlns="http://www.w3.org/2000/svg" xmlns:xlink="http://www.w3.org/1999/xlink" contentStyleType="text/css" data-diagram-type="DESCRIPTION" height="435.9375px" preserveAspectRatio="none" style="width:1637px;height:435px;background:#FFFFFF;" version="1.1" viewBox="0 0 1637 435" width="1637.5px" zoomAndPan="magnify"><title>&#12509;&#12473;&#12488;&#12503;&#12525;&#12475;&#12473;&#25551;&#30011;&#12501;&#12525;&#12540;&#22259;</title><defs><filter height="300%" id="fzt5l9jtb5n17" width="300%" x="-1" y="-1"><feGaussianBlur result="blurOut" stdDeviation="3.125"/><feColorMatrix in="blurOut" result="blurOut2" type="matrix" values="0 0 0 0 0 0 0 0 0 0 0 0 0 0 0 0 0 0 .4 0"/><feOffset dx="6.25" dy="6.25" in="blurOut2" result="blurOut3"/><feBlend in="SourceGraphic" in2="blurOut3" mode="normal"/></filter></defs><g><g class="title" data-source-line="1"><text fill="#000000" font-family="Yu Gothic UI" font-size="21.875" font-weight="bold" lengthAdjust="spacing" textLength="284.375" x="665.875" y="36.7737">&#12509;&#12473;&#12488;&#12503;&#12525;&#12475;&#12473;&#25551;&#30011;&#12501;&#12525;&#12540;&#22259;</text></g><!--entity BeginScene--><g class="entity" data-entity="BeginScene" data-source-line="19" data-uid="ent0002" id="entity_BeginScene"><rect fill="#F7FBFF" filter="url(#fzt5l9jtb5n17)" height="64.3738" rx="18.75" ry="18.75" style="stroke:#000000;stroke-width:0.7813;" width="204.3808" x="10.9375" y="256.3879"/><text fill="#000000" font-family="Yu Gothic UI" font-size="28.125" lengthAdjust="spacing" textLength="173.1308" x="26.5625" y="299.2041">beginScene()</text></g><!--entity SpaceDraw--><g class="entity" data-entity="SpaceDraw" data-source-line="20" data-uid="ent0003" id="entity_SpaceDraw"><rect fill="#F7FBFF" filter="url(#fzt5l9jtb5n17)" height="64.3738" rx="18.75" ry="18.75" style="stroke:#000000;stroke-width:0.7813;" width="202.4994" x="246.5625" y="256.3879"/><text fill="#000000" font-family="Yu Gothic UI" font-size="28.125" lengthAdjust="spacing" textLength="171.2494" x="262.1875" y="299.2041">space.draw()</text></g><!--entity Offscreen--><g class="entity" data-entity="Offscreen" data-source-line="21" data-uid="ent0004" id="entity_Offscreen"><rect fill="#F7FBFF" filter="url(#fzt5l9jtb5n17)" height="97.4976" rx="18.75" ry="18.75" style="stroke:#000000;stroke-width:0.7813;" width="219.0475" x="499.7031" y="239.8254"/><text fill="#000000" font-family="Yu Gothic UI" font-size="28.125" lengthAdjust="spacing" textLength="127.002" x="515.3281" y="282.6416">offscreen</text><text fill="#000000" font-family="Yu Gothic UI" font-size="28.125" lengthAdjust="spacing" textLength="187.7975" x="515.3281" y="315.7654">color + depth</text></g><!--entity PostFx--><g class="entity" data-entity="PostFx" data-source-line="22" data-uid="ent0005" id="entity_PostFx"><rect fill="#F7FBFF" filter="url(#fzt5l9jtb5n17)" height="97.4976" rx="18.75" ry="18.75" style="stroke:#000000;stroke-width:0.7813;" width="230.5557" x="769.375" y="150.7629"/><text fill="#000000" font-family="Yu Gothic UI" font-size="28.125" lengthAdjust="spacing" textLength="199.3057" x="785" y="193.5791">Bloom / DOF /</text><text fill="#000000" font-family="Yu Gothic UI" font-size="28.125" lengthAdjust="spacing" textLength="113.887" x="785" y="226.7029">Vignette</text></g><!--entity RenderCanvas--><g class="entity" data-entity="RenderCanvas" data-source-line="23" data-uid="ent0006" id="entity_RenderCanvas"><rect fill="#F7FBFF" filter="url(#fzt5l9jtb5n17)" height="97.4976" rx="18.75" ry="18.75" style="stroke:#000000;stroke-width:0.7813;" width="157.4554" x="1091.7969" y="69.5129"/><text fill="#000000" font-family="Yu Gothic UI" font-size="28.125" lengthAdjust="spacing" textLength="126.2054" x="1107.4219" y="112.3291">render to</text><text fill="#000000" font-family="Yu Gothic UI" font-size="28.125" lengthAdjust="spacing" textLength="91.8182" x="1107.4219" y="145.4529">canvas</text></g><!--entity ClearDepth--><g class="entity" data-entity="ClearDepth" data-source-line="24" data-uid="ent0007" id="entity_ClearDepth"><rect fill="#F7FBFF" filter="url(#fzt5l9jtb5n17)" height="64.3738" rx="18.75" ry="18.75" style="stroke:#000000;stroke-width:0.7813;" width="278.6896" x="1031.1875" y="345.4504"/><text fill="#000000" font-family="Yu Gothic UI" font-size="28.125" lengthAdjust="spacing" textLength="247.4396" x="1046.8125" y="388.2666">clearDepthBuffer()</text></g><!--entity HudOverlay--><g class="entity" data-entity="HudOverlay" data-source-line="25" data-uid="ent0008" id="entity_HudOverlay"><rect fill="#F7FBFF" filter="url(#fzt5l9jtb5n17)" height="97.4976" rx="18.75" ry="18.75" style="stroke:#000000;stroke-width:0.7813;" width="222.3846" x="1372.9063" y="247.6379"/><text fill="#000000" font-family="Yu Gothic UI" font-size="28.125" lengthAdjust="spacing" textLength="140.9546" x="1388.5313" y="290.4541">Message /</text><text fill="#000000" font-family="Yu Gothic UI" font-size="28.125" lengthAdjust="spacing" textLength="191.1346" x="1388.5313" y="323.5779">HUD / overlay</text></g><g class="entity" data-entity="GMN17" data-source-line="38" data-uid="ent0018" id="entity_GMN17"><path d="M769.8125,279.8254 L769.8125,328.5742 A0,0 0 0 0 769.8125,328.5742 L999.5,328.5742 A0,0 0 0 0 999.5,328.5742 L999.5,295.4504 L983.875,279.8254 L890.9062,279.8254 L884.6562,248.7317 L878.4062,279.8254 L769.8125,279.8254 A0,0 0 0 0 769.8125,279.8254" fill="#FEFFDD" filter="url(#fzt5l9jtb5n17)" style="stroke:#181818;stroke-width:0.7813;"/><path d="M983.875,279.8254 L983.875,295.4504 L999.5,295.4504 L983.875,279.8254" fill="#FEFFDD" style="stroke:#181818;stroke-width:0.7813;"/><text fill="#000000" font-family="Yu Gothic UI" font-size="28.125" lengthAdjust="spacing" textLength="196.875" x="779.1875" y="314.8291">&#12509;&#12473;&#12488;&#12503;&#12525;&#12475;&#12473;</text></g><g class="entity" data-entity="GMN20" data-source-line="42" data-uid="ent0021" id="entity_GMN20"><path d="M480.3125,127.3254 L480.3125,209.198 A0,0 0 0 0 480.3125,209.198 L602.9688,209.198 L609.2188,239.2317 L615.4688,209.198 L738.125,209.198 A0,0 0 0 0 738.125,209.198 L738.125,142.9504 L722.5,127.3254 L480.3125,127.3254 A0,0 0 0 0 480.3125,127.3254" fill="#FEFFDD" filter="url(#fzt5l9jtb5n17)" style="stroke:#181818;stroke-width:0.7813;"/><path d="M722.5,127.3254 L722.5,142.9504 L738.125,142.9504 L722.5,127.3254" fill="#FEFFDD" style="stroke:#181818;stroke-width:0.7813;"/><text fill="#000000" font-family="Yu Gothic UI" font-size="28.125" lengthAdjust="spacing" textLength="225" x="489.6875" y="162.3291">&#12471;&#12540;&#12531;&#12434;&#12356;&#12387;&#12383;&#12435;</text><text fill="#000000" font-family="Yu Gothic UI" font-size="28.125" lengthAdjust="spacing" textLength="225" x="489.6875" y="195.4529">&#12486;&#12463;&#12473;&#12481;&#12515;&#12408;&#25551;&#12367;</text></g><g class="entity" data-entity="GMN23" data-source-line="47" data-uid="ent0024" id="entity_GMN23"><path d="M1126,198.5754 L1126,247.3242 A0,0 0 0 0 1126,247.3242 L1215.0625,247.3242 A0,0 0 0 0 1215.0625,247.3242 L1215.0625,214.2004 L1199.4375,198.5754 L1176.7813,198.5754 L1170.5313,167.4817 L1164.2813,198.5754 L1126,198.5754 A0,0 0 0 0 1126,198.5754" fill="#FEFFDD" filter="url(#fzt5l9jtb5n17)" style="stroke:#181818;stroke-width:0.7813;"/><path d="M1199.4375,198.5754 L1199.4375,214.2004 L1215.0625,214.2004 L1199.4375,198.5754" fill="#FEFFDD" style="stroke:#181818;stroke-width:0.7813;"/><text fill="#000000" font-family="Yu Gothic UI" font-size="28.125" lengthAdjust="spacing" textLength="56.25" x="1135.375" y="233.5791">&#34920;&#31034;</text></g><g class="entity" data-entity="GMN26" data-source-line="51" data-uid="ent0027" id="entity_GMN26"><path d="M1341.125,376.7004 L1341.125,425.4492 A0,0 0 0 0 1341.125,425.4492 L1627.0625,425.4492 A0,0 0 0 0 1627.0625,425.4492 L1627.0625,392.3254 L1611.4375,376.7004 L1490.3438,376.7004 L1484.0938,345.6067 L1477.8438,376.7004 L1341.125,376.7004 A0,0 0 0 0 1341.125,376.7004" fill="#FEFFDD" filter="url(#fzt5l9jtb5n17)" style="stroke:#181818;stroke-width:0.7813;"/><path d="M1611.4375,376.7004 L1611.4375,392.3254 L1627.0625,392.3254 L1611.4375,376.7004" fill="#FEFFDD" style="stroke:#181818;stroke-width:0.7813;"/><text fill="#000000" font-family="Yu Gothic UI" font-size="28.125" lengthAdjust="spacing" textLength="253.125" x="1350.5" y="411.7041">&#25991;&#23383;&#12399;&#26368;&#24460;&#12395;&#37325;&#12397;&#12427;</text></g><!--link BeginScene to SpaceDraw--><g class="link" data-entity-1="BeginScene" data-entity-2="SpaceDraw" data-source-line="27" data-uid="lnk9" id="link_BeginScene_SpaceDraw"><path d="M215.5781,288.5754 C225.8281,288.5754 226.8438,288.5754 237.0625,288.5754" fill="none" id="BeginScene-to-SpaceDraw" style="stroke:#000000;stroke-width:1.5625;"/><polygon fill="#000000" points="246.4375,288.5754,232.375,282.3254,238.625,288.5754,232.375,294.8254,246.4375,288.5754" style="stroke:#000000;stroke-width:1.5625;"/></g><!--link SpaceDraw to Offscreen--><g class="link" data-entity-1="SpaceDraw" data-entity-2="Offscreen" data-source-line="28" data-uid="lnk10" id="link_SpaceDraw_Offscreen"><path d="M449.2344,288.5754 C465.5625,288.5754 473.1719,288.5754 489.6875,288.5754" fill="none" id="SpaceDraw-to-Offscreen" style="stroke:#000000;stroke-width:1.5625;"/><polygon fill="#000000" points="499.0625,288.5754,485,282.3254,491.25,288.5754,485,294.8254,499.0625,288.5754" style="stroke:#000000;stroke-width:1.5625;"/></g><!--link Offscreen to PostFx--><g class="link" data-entity-1="Offscreen" data-entity-2="PostFx" data-source-line="29" data-uid="lnk11" id="link_Offscreen_PostFx"><path d="M719.1875,253.1223 C735.5,247.7786 743.4643,245.1767 759.9018,239.8017" fill="none" id="Offscreen-to-PostFx" style="stroke:#000000;stroke-width:1.5625;"/><polygon fill="#000000" points="768.8125,236.8879,753.5039,235.3181,761.3869,239.3161,757.389,247.1991,768.8125,236.8879" style="stroke:#000000;stroke-width:1.5625;"/></g><!--link PostFx to RenderCanvas--><g class="link" data-entity-1="PostFx" data-entity-2="RenderCanvas" data-source-line="30" data-uid="lnk12" id="link_PostFx_RenderCanvas"><path d="M1000.4063,166.7004 C1030.9063,157.9348 1054.1622,151.2606 1082.1934,143.1981" fill="none" id="PostFx-to-RenderCanvas" style="stroke:#000000;stroke-width:1.5625;"/><polygon fill="#000000" points="1091.2031,140.6067,1075.9609,138.4873,1083.695,142.7662,1079.4162,150.5003,1091.2031,140.6067" style="stroke:#000000;stroke-width:1.5625;"/></g><!--link ClearDepth to HudOverlay--><g class="link" data-entity-1="ClearDepth" data-entity-2="HudOverlay" data-source-line="31" data-uid="lnk13" id="link_ClearDepth_HudOverlay"><path d="M1297.9063,344.7004 C1322.625,338.2473 1339.2908,333.8901 1363.4314,327.562" fill="none" id="ClearDepth-to-HudOverlay" style="stroke:#000000;stroke-width:1.5625;"/><polygon fill="#000000" points="1372.5,325.1848,1357.3123,322.7049,1364.9428,327.1658,1360.4819,334.7964,1372.5,325.1848" style="stroke:#000000;stroke-width:1.5625;"/></g><!--link RenderCanvas to HudOverlay--><g class="link" data-entity-1="RenderCanvas" data-entity-2="HudOverlay" data-source-line="32" data-uid="lnk14" id="link_RenderCanvas_HudOverlay"><path d="M1249.625,151.8567 C1269.5625,161.1536 1290.7656,171.6536 1309.875,182.3254 C1344.8438,201.8567 1374.3593,220.7379 1405.2811,241.7847" fill="none" id="RenderCanvas-to-HudOverlay" style="stroke:#000000;stroke-width:1.5625;"/><polygon fill="#000000" points="1413.0313,247.0598,1404.9228,233.9805,1406.5728,242.6639,1397.8894,244.3139,1413.0313,247.0598" style="stroke:#000000;stroke-width:1.5625;"/></g><!--link Offscreen to ClearDepth--><!--link PostFx to HudOverlay--><!--SRC=[TLHTQzH057tFhxZK5qNMsgBea-3kijO7NUbIGQmFiybDCcns9amcNJyec4IieBBWLnzKHFH1aDA7FlXHySyCkzL_uIIRJQQbFYLpxZdtddFp8QaC45JsNgK_LFP4PTigsr7flZvEn-E3L_igUvqZsQ_9sptB2j2L83a8wlaI72hGbfGpAnfG5X91Xj0dzi0JF6PEYmTSmCYd4erwv1E7ZoZpG8hOB3WXXQNpPqq4NH87iiEPl4w62BTYkCAbJsrOkteyhKVl8onTD8gvGS8ydV611R0wyoKO2bW-fu4c5mwAcTD-eAtds9449zmBRjzrTIKVON8tZK6NXU0ZisXu86mGOGZBPZZ67In1gpQvq4UFifwD34-UMW0IGRC2J5eK4XlFE8ACIbel1zhwRBAuwqQsG6Jhp2wSdTRB2gLVABhpegbe1fmFOH7QtGuihhERr6Ce9HQ26poIdRicMo3JszFlW-vFs0Q92jvgWROAm6JR0HBHpkStOzT5KJflLR19lePHH3pCJQoijRKZle4Y8FSAoKhiT6T7owht0mtzOh769MCNrHqqD5udhkugJHbkTYdOXsBK9Yk5OSAa5bhJe37hjayT1zcTieEHV3xt2CFimxX4w7CfzGFYxjpmiL-kfVr0pYzLaeUvfCwlqc_wYrRPdafVgEIHIZwfv8DAN-fsZrMwMtHCLARHx_ele9BnqOwrZqDh-lFnoy7dd_yd6tccRxOcEzigsPs-UpZv_KmbN_zkFLU9Jl2qrly3]--></g></svg>