<svg xmlns="http://www.w3.org/2000/svg" xmlns:xlink="http://www.w3.org/1999/xlink" contentStyleType="text/css" data-diagram-type="DESCRIPTION" height="362.5px" preserveAspectRatio="none" style="width:1189px;height:362px;background:#FFFFFF;" version="1.1" viewBox="0 0 1189 362" width="1189.0625px" zoomAndPan="magnify"><title>&#35542;&#29702;&#20301;&#32622;&#12392;&#35211;&#12383;&#30446;&#20301;&#32622;&#12398;&#20998;&#38626;</title><defs><filter height="300%" id="f5tjjw2s8bm3u" width="300%" x="-1" y="-1"><feGaussianBlur result="blurOut" stdDeviation="3.125"/><feColorMatrix in="blurOut" result="blurOut2" type="matrix" values="0 0 0 0 0 0 0 0 0 0 0 0 0 0 0 0 0 0 .4 0"/><feOffset dx="6.25" dy="6.25" in="blurOut2" result="blurOut3"/><feBlend in="SourceGraphic" in2="blurOut3" mode="normal"/></filter></defs><g><g class="title" data-source-line="1"><text fill="#000000" font-family="Yu Gothic UI" font-size="21.875" font-weight="bold" lengthAdjust="spacing" textLength="284.375" x="441.8968" y="36.7737">&#35542;&#29702;&#20301;&#32622;&#12392;&#35211;&#12383;&#30446;&#20301;&#32622;&#12398;&#20998;&#38626;</text></g><!--entity Cell--><g class="entity" data-entity="Cell" data-source-line="19" data-uid="ent0002" id="entity_Cell"><rect fill="#F7FBFF" filter="url(#f5tjjw2s8bm3u)" height="64.3738" rx="18.75" ry="18.75" style="stroke:#000000;stroke-width:0.7813;" width="154.5166" x="10.9375" y="241.3879"/><text fill="#000000" font-family="Yu Gothic UI" font-size="28.125" lengthAdjust="spacing" textLength="123.2666" x="26.5625" y="284.2041">cell (x, y)</text></g><!--entity Logic--><g class="entity" data-entity="Logic" data-source-line="20" data-uid="ent0003" id="entity_Logic"><rect fill="#F7FBFF" filter="url(#f5tjjw2s8bm3u)" height="97.4976" rx="18.75" ry="18.75" style="stroke:#000000;stroke-width:0.7813;" width="174.0173" x="411.6094" y="246.7004"/><text fill="#000000" font-family="Yu Gothic UI" font-size="28.125" lengthAdjust="spacing" textLength="142.7673" x="427.2344" y="289.5166">canMove /</text><text fill="#000000" font-family="Yu Gothic UI" font-size="28.125" lengthAdjust="spacing" textLength="112.6785" x="427.2344" y="322.6404">findPath</text></g><!--entity WorldTarget--><g class="entity" data-entity="WorldTarget" data-source-line="21" data-uid="ent0004" id="entity_WorldTarget"><rect fill="#F7FBFF" filter="url(#f5tjjw2s8bm3u)" height="97.4976" rx="18.75" ry="18.75" style="stroke:#000000;stroke-width:0.7813;" width="197.7203" x="198.2656" y="148.2629"/><text fill="#000000" font-family="Yu Gothic UI" font-size="28.125" lengthAdjust="spacing" textLength="166.4703" x="213.8906" y="191.0791">world target</text><text fill="#000000" font-family="Yu Gothic UI" font-size="28.125" lengthAdjust="spacing" textLength="110.8246" x="213.8906" y="224.2029">position</text></g><!--entity AnimatePosition--><g class="entity" data-entity="AnimatePosition" data-source-line="22" data-uid="ent0005" id="entity_AnimatePosition"><rect fill="#F7FBFF" filter="url(#f5tjjw2s8bm3u)" height="64.3738" rx="18.75" ry="18.75" style="stroke:#000000;stroke-width:0.7813;" width="347.6288" x="601.25" y="163.2629"/><text fill="#000000" font-family="Yu Gothic UI" font-size="28.125" lengthAdjust="spacing" textLength="316.3788" x="616.875" y="206.0791">Node.animatePosition()</text></g><!--entity DisplayArea--><g class="entity" data-entity="DisplayArea" data-source-line="23" data-uid="ent0006" id="entity_DisplayArea"><rect fill="#F7FBFF" filter="url(#f5tjjw2s8bm3u)" height="97.4976" rx="18.75" ry="18.75" style="stroke:#000000;stroke-width:0.7813;" width="189.5905" x="981.7031" y="226.3879"/><text fill="#000000" font-family="Yu Gothic UI" font-size="28.125" lengthAdjust="spacing" textLength="158.3405" x="997.3281" y="269.2041">displayArea</text><text fill="#000000" font-family="Yu Gothic UI" font-size="28.125" lengthAdjust="spacing" textLength="73.7869" x="997.3281" y="302.3279">scroll</text></g><g class="entity" data-entity="GMN12" data-source-line="32" data-uid="ent0013" id="entity_GMN12"><path d="M29.6094,161.7004 L29.6094,210.4492 A0,0 0 0 0 29.6094,210.4492 L81.9531,210.4492 L88.2031,240.7629 L94.4531,210.4492 L146.7969,210.4492 A0,0 0 0 0 146.7969,210.4492 L146.7969,177.3254 L131.1719,161.7004 L29.6094,161.7004 A0,0 0 0 0 29.6094,161.7004" fill="#FEFFDD" filter="url(#f5tjjw2s8bm3u)" style="stroke:#181818;stroke-width:0.7813;"/><path d="M131.1719,161.7004 L131.1719,177.3254 L146.7969,177.3254 L131.1719,161.7004" fill="#FEFFDD" style="stroke:#181818;stroke-width:0.7813;"/><text fill="#000000" font-family="Yu Gothic UI" font-size="28.125" lengthAdjust="spacing" textLength="84.375" x="38.9844" y="196.7041">&#35542;&#29702;&#23652;</text></g><g class="entity" data-entity="GMN15" data-source-line="36" data-uid="ent0016" id="entity_GMN15"><path d="M224.4688,67.9504 L224.4688,116.6992 A0,0 0 0 0 224.4688,116.6992 L290.875,116.6992 L297.125,147.5286 L303.375,116.6992 L369.7813,116.6992 A0,0 0 0 0 369.7813,116.6992 L369.7813,83.5754 L354.1563,67.9504 L224.4688,67.9504 A0,0 0 0 0 224.4688,67.9504" fill="#FEFFDD" filter="url(#f5tjjw2s8bm3u)" style="stroke:#181818;stroke-width:0.7813;"/><path d="M354.1563,67.9504 L354.1563,83.5754 L369.7813,83.5754 L354.1563,67.9504" fill="#FEFFDD" style="stroke:#181818;stroke-width:0.7813;"/><text fill="#000000" font-family="Yu Gothic UI" font-size="28.125" lengthAdjust="spacing" textLength="112.5" x="233.8438" y="102.9541">&#35211;&#12383;&#30446;&#23652;</text></g><!--link Cell to Logic--><g class="link" data-entity-1="Cell" data-entity-2="Logic" data-source-line="25" data-uid="lnk7" id="link_Cell_Logic"><path d="M165.8906,277.6692 C235.6563,281.4192 329.4667,286.4468 402.076,290.3531" fill="none" id="Cell-to-Logic" style="stroke:#000000;stroke-width:1.5625;"/><polygon fill="#000000" points="411.4375,290.8567,397.7311,283.8603,403.6363,290.437,397.0596,296.3422,411.4375,290.8567" style="stroke:#000000;stroke-width:1.5625;"/></g><!--link Cell to WorldTarget--><g class="link" data-entity-1="Cell" data-entity-2="WorldTarget" data-source-line="26" data-uid="lnk8" id="link_Cell_WorldTarget"><path d="M165.8125,245.2786 C176.3438,241.3723 178.4923,240.5569 189.3517,236.5256" fill="none" id="Cell-to-WorldTarget" style="stroke:#000000;stroke-width:1.5625;"/><polygon fill="#000000" points="198.1406,233.2629,182.7821,232.2976,190.8165,235.9818,187.1323,244.0162,198.1406,233.2629" style="stroke:#000000;stroke-width:1.5625;"/></g><!--link Logic to DisplayArea--><g class="link" data-entity-1="Logic" data-entity-2="DisplayArea" data-source-line="27" data-uid="lnk9" id="link_Logic_DisplayArea"><path d="M586.2031,292.5129 C676.5313,289.4192 822.6875,284.3723 948.8906,279.8254 C959.3906,279.4504 961.0221,279.3927 971.944,278.9864" fill="none" id="Logic-to-DisplayArea" style="stroke:#000000;stroke-width:1.5625;stroke-dasharray:10.9375,10.9375;"/><polygon fill="#000000" points="981.3125,278.6379,967.0274,272.915,973.5054,278.9283,967.492,285.4063,981.3125,278.6379" style="stroke:#000000;stroke-width:1.5625;"/><text fill="#000000" font-family="Yu Gothic UI" font-size="28.125" lengthAdjust="spacing" textLength="232.8827" x="658.6563" y="272.6416">&#21516;&#12376; cell &#12363;&#12425;&#35336;&#31639;</text></g><!--link WorldTarget to AnimatePosition--><g class="link" data-entity-1="WorldTarget" data-entity-2="AnimatePosition" data-source-line="28" data-uid="lnk10" id="link_WorldTarget_AnimatePosition"><path d="M396.5,196.6848 C455.4062,196.4973 522.7344,196.2792 591.5469,196.0449" fill="none" id="WorldTarget-to-AnimatePosition" style="stroke:#000000;stroke-width:1.5625;"/><polygon fill="#000000" points="600.9219,196.0129,586.8382,189.8109,593.1094,196.0395,586.8807,202.3108,600.9219,196.0129" style="stroke:#000000;stroke-width:1.5625;"/></g><!--link AnimatePosition to DisplayArea--><g class="link" data-entity-1="AnimatePosition" data-entity-2="DisplayArea" data-source-line="29" data-uid="lnk11" id="link_AnimatePosition_DisplayArea"><path d="M899.6875,228.3254 C926.9688,235.6067 946.3966,240.7933 972.2716,247.7152" fill="none" id="AnimatePosition-to-DisplayArea" style="stroke:#000000;stroke-width:1.5625;"/><polygon fill="#000000" points="981.3281,250.1379,969.3585,240.4661,973.781,248.119,966.1282,252.5415,981.3281,250.1379" style="stroke:#000000;stroke-width:1.5625;"/></g><!--SRC=[RPFVQXD15CRlvoaEzQO56srH52yAiT8Yr5Ai8a9k9ZjdTuTCpbbc9yOgNgGNfT8MUgL2BuHIf204V80-pHeItyBPtPXEWfVd-xupyplpnsbd42O_lupFZtxVd8rlXiNWUlBZf1Xy7ryC_od3qV7HdujB8Gp63Xo3rKdgG6cBaTDC8kzeogILNMZBg9DOxf7QPCCM-gbs6FXvAXNtDINWR2yqLAPXxU7zKC5OzepROdAxielmjWVRx58TmUld_u_jwmy8Quy3imIKbFWPFmg0bpMN9RIm_i0BJzagj3LfstZqKbkOu4xyA6x7iNVABSBifs2ZfhNS3ys0GL8dnmpMm-685Kv5SGkv5A4niFp-BXoiB87COTFNSxwa5_mEuLwBOargJxgqokrmegCms6Th53Xf4tGjoZZNvKLLsJUbzQfomevTJzIGfBlIuTuqlrnJDEVLi4lfF3Foe6bHjYYFB1jJjJoxrOKefu1LV- -qkZ55hILVXZIL1Ot6HjWEJs1qVbeCla5rECNWf3ZyFBa-7W-_Yg1vjluYx48zoyqH4Zlq3pi3Zkiphx_4wDULG59GslEX47lsNyBuNm00]--></g></svg>