<?xml version="1.0" encoding="UTF-8"?>
<svg xmlns="http://www.w3.org/2000/svg" width="1280" height="760" viewBox="0 0 1280 760" role="img" aria-label="tile_sim 構成図">
  <defs>
    <linearGradient id="bg" x1="0" y1="0" x2="1" y2="1">
      <stop offset="0%" stop-color="#fbfdff"/>
      <stop offset="100%" stop-color="#eef4fb"/>
    </linearGradient>
    <marker id="arrow" viewBox="0 0 10 10" refX="8.4" refY="5" markerWidth="4.1" markerHeight="4.1" orient="auto-start-reverse">
      <path d="M 0 0 L 10 5 L 0 10 z" fill="context-stroke"/>
    </marker>
  </defs>
  <rect width="1280" height="760" fill="url(#bg)"/>
  
    <text x="56" y="58" text-anchor="start" font-size="22" font-weight="700" fill="#374151" font-family="'Segoe UI', 'Hiragino Sans', 'Yu Gothic UI', sans-serif"><tspan x="56" dy="0">第24章</tspan></text>
    <text x="56" y="98" text-anchor="start" font-size="38" font-weight="700" fill="#111827" font-family="'Segoe UI', 'Hiragino Sans', 'Yu Gothic UI', sans-serif"><tspan x="56" dy="0">tile_sim 構成図</tspan></text>
    <line x1="56" y1="122" x2="1224" y2="122" stroke="#d8e3f4" stroke-width="2"/>
  
  
    <rect x="506" y="180" width="268" height="94" rx="20" ry="20" fill="#f7fbff" stroke="#2f537f" stroke-width="2.5"/><text x="640" y="227" text-anchor="middle" font-size="26" font-weight="600" fill="#111827" font-family="'Segoe UI', 'Hiragino Sans', 'Yu Gothic UI', sans-serif"><tspan x="640" dy="0">main.js</tspan></text>
    <rect x="210" y="364" width="220" height="90" rx="20" ry="20" fill="#f7fbff" stroke="#2f537f" stroke-width="2.5"/><text x="320" y="409" text-anchor="middle" font-size="26" font-weight="600" fill="#111827" font-family="'Segoe UI', 'Hiragino Sans', 'Yu Gothic UI', sans-serif"><tspan x="320" dy="0">controller.js</tspan></text>
    <rect x="504" y="364" width="220" height="90" rx="20" ry="20" fill="#f7fbff" stroke="#2f537f" stroke-width="2.5"/><text x="614" y="409" text-anchor="middle" font-size="26" font-weight="600" fill="#111827" font-family="'Segoe UI', 'Hiragino Sans', 'Yu Gothic UI', sans-serif"><tspan x="614" dy="0">camera.js</tspan></text>
    <rect x="798" y="364" width="220" height="90" rx="20" ry="20" fill="#f7fbff" stroke="#2f537f" stroke-width="2.5"/><text x="908" y="409" text-anchor="middle" font-size="26" font-weight="600" fill="#111827" font-family="'Segoe UI', 'Hiragino Sans', 'Yu Gothic UI', sans-serif"><tspan x="908" dy="0">mission.js</tspan></text>
    <rect x="504" y="524" width="220" height="90" rx="20" ry="20" fill="#f7fbff" stroke="#2f537f" stroke-width="2.5"/><text x="614" y="569" text-anchor="middle" font-size="26" font-weight="600" fill="#111827" font-family="'Segoe UI', 'Hiragino Sans', 'Yu Gothic UI', sans-serif"><tspan x="614" dy="-0.675em">terrain.js /</tspan><tspan x="614" dy="1.35em">constants.js</tspan></text>
    <rect x="210" y="566" width="220" height="90" rx="20" ry="20" fill="#f7fbff" stroke="#2f537f" stroke-width="2.5"/><text x="320" y="611" text-anchor="middle" font-size="26" font-weight="600" fill="#111827" font-family="'Segoe UI', 'Hiragino Sans', 'Yu Gothic UI', sans-serif"><tspan x="320" dy="0">alpha_actor.js</tspan></text>
    <rect x="798" y="566" width="220" height="90" rx="20" ry="20" fill="#f7fbff" stroke="#2f537f" stroke-width="2.5"/><text x="908" y="611" text-anchor="middle" font-size="26" font-weight="600" fill="#111827" font-family="'Segoe UI', 'Hiragino Sans', 'Yu Gothic UI', sans-serif"><tspan x="908" dy="-0.675em">enemy_units.js /</tspan><tspan x="908" dy="1.35em">support_units.js</tspan></text>
    <rect x="210" y="680" width="220" height="72" rx="20" ry="20" fill="#fff8ef" stroke="#bc8752" stroke-width="2.5"/><text x="320" y="716" text-anchor="middle" font-size="26" font-weight="600" fill="#111827" font-family="'Segoe UI', 'Hiragino Sans', 'Yu Gothic UI', sans-serif"><tspan x="320" dy="0">human.glb runtime</tspan></text>

    <line x1="640" y1="274" x2="320" y2="364" stroke="#4b5563" stroke-width="3"  marker-end="url(#arrow)"/>
    <line x1="640" y1="274" x2="614" y2="364" stroke="#4b5563" stroke-width="3"  marker-end="url(#arrow)"/>
    <line x1="640" y1="274" x2="908" y2="364" stroke="#4b5563" stroke-width="3"  marker-end="url(#arrow)"/>
    <line x1="640" y1="274" x2="614" y2="524" stroke="#4b5563" stroke-width="3"  marker-end="url(#arrow)"/>

    <line x1="320" y1="454" x2="320" y2="566" stroke="#4b5563" stroke-width="3"  marker-end="url(#arrow)"/>
    <line x1="908" y1="454" x2="908" y2="566" stroke="#4b5563" stroke-width="3"  marker-end="url(#arrow)"/>
    <line x1="320" y1="656" x2="320" y2="680" stroke="#4b5563" stroke-width="3"  marker-end="url(#arrow)"/>

    <text x="640" y="112" text-anchor="middle" font-size="26" font-weight="500" fill="#374151" font-family="'Segoe UI', 'Hiragino Sans', 'Yu Gothic UI', sans-serif"><tspan x="640" dy="0">役割を分けて読むと tile_sim の設計が追いやすい</tspan></text>
  
</svg>